<svg xmlns="http://www.w3.org/2000/svg" width="688" height="174" viewBox="0 0 688 174">
<g>
<path d="M 349.88 82.25 C350.05,84.80 351.68,84.39 352.38,81.63 C352.43,81.43 352.50,81.23 352.59,81.05 C352.14,82.75 352.00,85.70 352.00,90.58 L 352.00 99.00 L 343.50 99.00 L 343.50 75.00 L 347.75 75.00 C348.37,75.00 348.91,75.01 349.38,75.05 C347.78,75.31 347.50,76.57 349.03,77.52 C349.59,77.87 349.99,78.68 349.91,79.33 C349.83,79.97 349.82,81.29 349.88,82.25 ZM 457.90 83.14 C457.52,84.77 457.29,87.12 457.15,90.54 L 456.79 99.00 L 449.00 99.00 L 449.00 75.21 L 453.00 74.83 C454.30,74.70 455.20,74.67 455.81,74.76 C455.70,74.84 455.58,74.93 455.46,75.04 C454.50,75.83 454.27,76.67 454.85,77.25 C455.36,77.76 455.55,79.94 455.26,82.09 C454.64,86.71 456.03,87.17 457.90,83.14 ZM 304.26 90.71 C305.02,86.17 304.10,80.44 302.59,78.60 C303.01,79.01 303.38,79.65 303.59,80.49 C303.93,81.86 304.62,82.74 305.11,82.43 C306.34,81.67 306.24,73.00 305.00,73.00 C304.45,73.00 304.00,73.70 304.00,74.55 L 304.00 67.00 L 313.05 67.00 L 312.50 98.50 L 311.52 98.52 C312.25,97.46 312.60,92.91 312.78,82.67 C313.01,69.17 312.84,67.00 311.53,67.00 C310.22,67.00 310.00,69.33 310.00,83.08 C310.00,93.31 310.19,97.54 310.80,98.53 L 303.83 98.65 C302.97,98.67 302.19,98.68 301.49,98.68 C304.52,98.43 305.22,97.93 305.66,96.20 C306.40,93.29 305.17,91.95 303.88,94.26 C303.06,95.72 301.93,96.21 300.99,95.79 C301.25,95.85 301.53,95.85 301.85,95.79 C302.91,95.59 303.73,93.85 304.26,90.71 ZM 191.66 97.45 C191.61,97.58 191.57,97.70 191.54,97.81 L 191.82 89.88 C192.03,84.09 191.80,80.84 190.99,79.68 C191.13,79.85 191.29,80.05 191.47,80.29 C193.18,82.63 194.35,82.44 193.69,79.94 C193.26,78.27 193.57,77.94 195.33,78.19 C196.86,78.41 197.59,79.31 197.82,81.25 C198.13,84.02 200.00,85.19 200.00,82.62 C200.00,81.86 200.71,80.66 201.58,79.94 C200.36,80.95 200.00,83.26 200.00,90.12 L 200.00 99.00 L 191.50 99.00 L 191.53 98.27 C191.61,98.55 191.96,98.57 192.55,98.34 C194.13,97.74 194.54,96.00 193.11,96.00 C192.62,96.00 191.96,96.65 191.66,97.45 ZM 362.00 92.50 C362.00,97.61 362.32,99.00 363.50,99.00 L 356.00 99.00 L 356.00 89.00 C356.00,81.78 355.75,79.39 354.87,79.05 C356.45,78.35 358.75,78.00 361.75,78.00 C363.85,78.00 364.05,77.77 363.00,76.50 C362.13,75.45 360.46,74.97 358.67,75.07 C360.46,74.97 362.12,75.44 362.98,76.47 C364.00,77.70 364.49,77.77 366.66,76.67 C364.34,78.04 362.51,80.19 362.31,82.68 C362.03,86.12 364.64,85.53 365.35,82.00 C365.39,81.79 365.44,81.59 365.50,81.40 C365.13,83.16 365.00,86.04 365.00,90.58 L 365.00 92.50 C365.00,87.39 364.68,86.00 363.50,86.00 C362.32,86.00 362.00,87.39 362.00,92.50 ZM 132.04 88.85 C131.95,95.29 132.10,97.97 132.67,98.63 L 130.25 98.81 L 126.00 99.11 L 126.00 75.00 L 129.50 75.00 C130.49,75.00 131.29,75.01 131.94,75.04 C131.10,75.18 131.05,75.67 131.48,76.75 C131.87,77.71 132.12,83.16 132.04,88.85 ZM 112.00 79.56 C112.00,83.07 113.59,84.22 114.65,81.47 C114.78,81.14 115.04,80.75 115.37,80.37 C114.46,82.15 114.00,85.67 114.00,90.93 L 114.00 99.00 L 110.06 99.00 C108.95,99.00 107.89,98.90 107.07,98.74 C107.72,97.62 108.00,93.81 108.00,86.92 C108.00,79.25 107.79,76.04 107.18,75.36 L 109.40 75.18 C110.84,75.06 112.18,75.17 113.06,75.45 C112.49,76.00 112.00,77.59 112.00,79.56 ZM 408.65 95.30 C408.30,93.21 408.02,87.79 408.01,83.25 L 408.00 75.00 L 415.16 75.00 C413.65,75.05 413.53,76.31 413.81,87.06 C414.00,94.55 414.33,97.97 414.96,98.63 L 412.89 98.80 C409.41,99.09 409.26,98.96 408.65,95.30 ZM 431.23 81.11 C430.42,83.14 430.00,86.65 430.00,91.57 L 430.00 99.00 L 426.00 99.00 C424.91,99.00 423.91,98.94 423.18,98.86 C423.69,98.01 424.00,93.55 424.00,86.92 C424.00,80.07 423.76,76.30 423.25,75.39 L 425.92 75.19 C427.29,75.09 428.24,75.08 428.88,75.21 C428.51,75.83 428.20,77.75 428.15,80.00 C428.02,85.54 429.27,86.54 430.80,82.13 C430.94,81.75 431.08,81.41 431.23,81.11 ZM 188.39 80.10 C187.33,81.17 187.00,83.65 187.00,90.12 L 187.00 99.00 L 183.06 99.00 C181.94,99.00 180.87,98.91 180.07,98.77 C180.71,97.63 181.00,93.80 181.00,86.92 C181.00,79.09 180.76,75.76 180.10,75.27 L 182.44 74.89 C183.63,74.70 184.47,74.61 185.09,74.65 C184.13,76.24 184.92,84.00 186.11,84.00 C186.60,84.00 187.00,83.38 187.00,82.62 C187.00,81.93 187.61,80.85 188.39,80.10 ZM 147.66 79.87 C147.91,81.71 148.00,84.44 148.00,88.63 L 148.00 99.11 L 143.75 98.81 L 141.40 98.64 C141.98,97.93 142.06,95.04 141.84,87.61 C141.65,81.22 141.74,76.00 142.03,76.00 C142.32,76.00 143.33,76.90 144.27,78.00 C145.61,79.56 147.03,80.27 147.66,79.87 ZM 37.25 92.50 C37.94,93.29 38.61,93.94 38.75,93.96 C38.89,93.98 39.00,87.94 39.00,80.53 C39.00,80.44 39.00,80.34 39.00,80.25 C39.00,89.30 39.39,93.99 40.20,94.80 C40.72,95.32 41.53,95.67 42.46,95.83 C42.06,95.82 41.64,95.81 41.20,95.79 C32.93,95.44 32.00,93.73 32.00,78.78 C32.00,71.28 31.80,68.10 31.20,67.39 L 34.25 67.20 L 39.00 66.89 L 39.00 80.25 C39.00,68.94 38.78,67.15 37.50,67.64 C35.52,68.40 35.30,90.28 37.25,92.50 ZM 440.98 89.75 C441.00,97.30 441.28,99.00 442.50,99.00 L 435.00 99.00 L 435.00 89.00 C435.00,81.24 434.77,79.25 433.71,79.02 C434.22,78.84 434.83,78.69 435.55,78.56 C438.20,78.06 439.54,78.24 440.13,79.18 C440.59,79.90 440.98,84.66 440.98,89.75 ZM 470.75 80.67 C470.93,82.47 471.00,84.99 471.00,88.57 L 471.00 99.00 L 463.82 99.00 C464.84,98.99 465.06,96.65 464.81,88.50 C464.64,82.72 464.85,78.00 465.29,78.00 C465.72,78.00 467.18,78.73 468.54,79.62 C469.84,80.47 470.46,80.82 470.75,80.67 ZM 212.50 78.95 C212.87,80.75 213.00,83.67 213.00,88.63 L 213.00 99.11 L 208.88 98.81 L 206.30 98.61 C206.73,97.45 207.00,93.71 207.00,88.50 C207.00,77.93 207.71,76.11 210.69,79.09 C211.40,79.80 211.99,79.83 212.40,79.17 C212.44,79.10 212.48,79.02 212.50,78.95 ZM 628.00 87.11 C628.00,96.31 628.30,99.07 629.25,98.75 C630.12,98.46 630.59,95.14 630.78,87.82 C631.01,79.34 630.77,77.05 629.53,76.03 C628.17,74.90 628.00,76.11 628.00,86.96 L 628.00 75.21 L 632.00 74.83 C633.10,74.72 633.90,74.68 634.49,74.72 C633.98,75.63 633.59,77.81 633.80,80.25 C634.26,85.70 635.34,86.32 636.85,82.00 C636.96,81.67 637.10,81.36 637.26,81.06 C636.42,83.08 636.00,86.59 636.00,91.57 L 636.00 99.00 L 628.00 99.00 ZM 661.87 80.59 C661.98,82.28 662.00,84.65 662.00,88.04 L 662.00 99.00 L 654.00 99.00 L 654.00 89.08 C654.00,96.71 654.30,99.06 655.25,98.74 C656.15,98.43 656.49,95.22 656.46,87.18 L 656.43 76.04 L 659.21 78.71 C661.00,80.42 661.64,81.00 661.87,80.59 ZM 231.00 82.12 C231.00,80.62 230.53,79.28 229.87,78.39 C230.52,79.16 231.00,80.28 231.00,81.12 C231.00,82.16 231.45,83.00 232.00,83.00 C232.55,83.00 233.00,82.55 233.00,82.00 C233.00,81.45 233.98,81.98 235.19,83.19 C236.57,84.57 237.47,84.80 237.75,84.14 L 238.26 88.00 L 232.13 88.00 C229.13,88.00 227.59,88.02 226.81,88.37 C227.04,88.05 227.31,87.76 227.64,87.52 C229.05,86.49 229.07,86.24 227.80,85.75 C225.08,84.71 223.59,86.66 223.84,90.93 C224.11,95.50 222.57,96.34 220.84,92.56 C219.67,89.99 217.55,88.68 217.09,89.98 C217.00,88.69 217.06,87.20 217.25,85.46 C217.42,85.69 217.81,85.63 218.47,85.37 C219.39,85.02 220.56,83.66 221.05,82.36 C222.15,79.48 224.00,79.25 224.00,82.00 C224.00,83.10 224.45,84.00 225.00,84.00 C225.55,84.00 226.01,82.99 226.02,81.75 C226.02,80.51 226.44,78.85 226.94,78.06 C226.44,78.85 226.02,80.74 226.02,82.25 C226.00,84.52 226.44,85.00 228.50,85.00 C230.59,85.00 231.00,84.53 231.00,82.12 ZM 650.01 81.28 C649.32,83.18 649.00,86.35 649.00,90.99 L 649.00 99.11 L 644.86 98.81 L 642.44 98.63 C643.20,97.95 643.49,94.68 643.47,87.36 C643.44,76.94 643.53,76.47 645.22,77.92 C646.20,78.76 647.00,80.69 647.00,82.22 C647.00,85.86 648.27,85.76 649.69,82.00 C649.79,81.75 649.89,81.51 650.01,81.28 ZM 94.36 83.49 C94.71,82.58 94.51,81.05 94.04,79.70 C94.41,80.28 94.94,80.58 95.41,80.40 C96.98,79.80 99.45,84.39 98.66,86.43 C98.37,87.20 98.48,87.67 99.06,87.87 C98.00,87.95 96.74,88.00 95.38,88.00 L 88.75 88.00 L 89.38 91.15 C89.47,91.59 89.56,92.00 89.67,92.38 C88.12,89.27 87.01,89.36 86.97,92.75 L 86.93 95.50 L 84.97 93.14 C82.69,90.41 82.39,84.39 84.39,81.75 C86.14,79.45 87.00,79.54 87.00,82.00 C87.00,84.65 88.18,84.49 89.16,82.16 C89.06,82.66 89.00,83.14 89.00,83.57 C89.00,85.44 93.33,85.44 94.28,83.67 C94.26,83.72 94.25,83.76 94.23,83.81 C93.99,84.54 94.44,84.77 95.42,84.39 C96.29,84.06 97.00,83.35 97.00,82.81 C97.00,81.59 95.03,82.21 94.36,83.51 C94.36,83.51 94.36,83.50 94.36,83.49 ZM 498.74 97.25 C499.04,96.39 497.92,96.00 495.14,96.00 C492.93,96.00 490.81,95.50 490.44,94.90 C489.72,93.73 489.75,78.92 490.48,78.19 C490.71,77.95 491.63,78.49 492.52,79.38 C494.12,80.97 495.37,81.35 495.82,80.48 C495.97,81.92 496.00,83.97 496.00,87.06 C496.00,94.55 496.26,96.00 497.58,96.00 C498.45,96.00 498.98,96.56 498.74,97.25 ZM 405.73 97.28 C405.95,96.53 404.57,96.01 401.81,95.81 L 397.50 95.50 L 397.21 86.75 C396.93,78.13 397.54,76.53 400.00,79.50 C401.25,81.00 402.39,81.33 402.82,80.49 C402.97,81.92 403.00,83.98 403.00,87.06 C403.00,94.55 403.26,96.00 404.58,96.00 C405.45,96.00 405.98,96.56 405.74,97.25 C405.74,97.26 405.74,97.27 405.73,97.28 ZM 164.39 94.42 C164.73,93.55 165.00,91.09 165.00,88.95 C165.00,86.08 164.64,85.20 163.64,85.59 C164.53,85.24 165.01,85.82 165.02,87.28 C165.03,89.08 165.21,89.21 165.99,88.00 C166.52,87.18 166.89,84.81 166.81,82.75 C166.65,78.28 167.11,77.61 169.24,79.26 C170.44,80.19 170.92,82.70 171.17,89.25 C171.35,94.06 171.27,97.98 171.00,97.96 C170.73,97.94 169.88,97.23 169.13,96.37 C168.16,95.28 166.79,95.00 164.49,95.44 C164.18,95.49 163.89,95.54 163.63,95.58 C163.93,95.33 164.19,94.94 164.39,94.42 ZM 553.36 83.49 C553.38,83.45 553.40,83.40 553.41,83.36 C553.68,85.45 554.63,85.47 555.91,83.25 C556.77,81.75 557.01,81.97 557.58,84.75 C557.86,86.12 558.47,87.29 559.07,87.77 C558.02,87.96 556.48,88.00 554.38,88.00 L 547.75 88.00 L 548.40 91.24 C548.75,93.02 549.67,95.10 550.44,95.87 C550.94,96.37 551.57,96.67 552.25,96.79 C551.63,96.69 551.04,96.45 550.55,96.04 C549.77,95.39 548.84,93.54 548.48,91.93 C547.62,88.01 546.00,88.19 546.00,92.21 C546.00,95.19 545.88,95.31 544.36,93.79 C542.36,91.79 542.21,85.30 544.09,81.94 L 545.46 79.50 L 545.80 81.75 C546.21,84.47 547.33,84.58 548.13,82.34 C548.04,82.78 548.00,83.19 548.00,83.57 C548.00,85.50 552.62,85.43 553.36,83.49 ZM 512.61 79.00 C513.69,79.00 514.00,80.97 514.00,87.97 C514.00,95.53 514.24,96.85 515.50,96.36 C517.33,95.66 517.65,83.05 515.89,81.29 C514.35,79.75 515.66,78.00 518.33,78.00 C520.50,78.00 520.54,78.21 520.17,88.50 C519.84,97.63 520.00,99.00 521.40,99.00 L 514.00 99.00 L 514.00 89.00 C514.00,81.12 513.70,79.00 512.61,79.00 ZM 326.07 79.11 C324.82,82.15 324.62,90.84 325.72,94.30 C324.46,91.70 323.00,91.23 323.00,93.50 C323.00,96.11 320.94,95.12 319.85,92.00 C319.27,90.35 318.40,89.00 317.90,89.00 C317.41,89.00 317.00,88.32 317.00,87.50 C317.00,86.68 317.38,86.00 317.86,86.00 C318.33,86.00 319.12,84.57 319.62,82.83 C320.68,79.14 323.00,77.82 323.00,80.92 C323.00,83.97 324.39,83.46 325.73,79.90 C325.84,79.62 325.95,79.35 326.07,79.11 ZM 507.24 88.48 C506.82,97.59 506.95,98.96 508.32,99.00 L 505.75 99.00 L 502.72 99.00 C503.54,98.92 503.98,95.35 504.19,87.00 C504.46,76.43 504.34,75.06 502.88,75.00 L 505.53 75.00 C506.23,75.00 506.84,75.02 507.36,75.05 C505.84,75.32 505.47,76.55 506.86,77.42 C507.34,77.71 507.51,82.69 507.24,88.48 ZM 370.51 99.00 C371.72,99.00 372.00,97.24 372.00,89.50 C372.00,82.78 371.65,80.00 370.80,80.00 C369.91,80.00 369.89,79.71 370.73,78.87 C371.36,78.24 372.57,78.01 373.43,78.34 C374.71,78.83 375.00,80.78 375.00,88.97 C375.00,97.22 375.27,99.00 376.50,99.00 L 370.51 99.00 ZM 299.62 94.16 C299.54,93.95 299.47,93.74 299.41,93.50 C299.07,92.12 298.38,91.00 297.89,91.00 C296.52,91.00 296.83,94.77 298.25,95.34 C299.01,95.64 298.82,95.87 297.78,95.92 C295.62,96.02 293.00,91.11 293.00,86.98 C293.00,83.47 294.39,80.34 297.14,77.71 C298.71,76.20 299.00,76.17 299.00,77.46 C299.00,78.31 298.55,79.00 298.00,79.00 C297.45,79.00 297.00,81.03 297.00,83.50 C297.00,85.97 297.45,88.00 298.00,88.00 C298.55,88.00 299.00,86.46 299.00,84.58 C299.00,82.70 299.27,80.45 299.61,79.58 C299.89,78.84 300.31,78.38 300.77,78.17 C299.47,78.81 299.00,81.33 299.00,87.00 C299.00,90.49 299.18,92.78 299.62,94.16 ZM 74.39 93.42 C73.51,95.72 72.65,95.37 71.21,92.11 C70.47,90.44 68.56,88.66 66.71,87.92 C62.11,86.06 58.80,82.41 60.46,81.03 C62.13,79.65 64.77,80.69 65.51,83.03 C65.83,84.04 68.10,85.84 70.55,87.02 C74.92,89.14 75.60,90.27 74.39,93.42 ZM 586.90 80.24 C585.82,83.62 585.74,91.17 586.73,94.30 C585.43,91.59 584.01,91.27 583.97,93.75 C583.90,97.14 580.00,90.99 580.00,87.50 C580.00,84.01 583.90,77.86 583.97,81.25 C584.02,83.91 585.55,83.34 586.90,80.24 ZM 531.75 99.00 L 527.50 99.00 L 527.82 89.50 C527.57,97.01 527.79,99.00 528.86,99.00 C529.95,99.00 530.15,96.88 529.84,88.47 C529.50,79.43 529.66,77.98 530.97,78.23 C532.20,78.47 532.56,80.53 532.78,88.76 C533.01,96.96 533.36,99.00 534.53,99.00 L 531.75 99.00 ZM 620.15 92.00 C618.40,97.03 617.50,95.39 617.50,87.13 C617.50,81.46 617.83,79.38 618.69,79.71 C619.34,79.96 620.17,81.48 620.52,83.08 C620.87,84.69 621.57,86.00 622.08,86.00 C622.59,86.00 623.00,86.68 623.00,87.50 C623.00,88.32 622.59,89.00 622.10,89.00 C621.60,89.00 620.73,90.35 620.15,92.00 ZM 335.61 92.25 C334.88,93.21 334.06,94.00 333.79,94.00 C333.51,94.00 333.28,90.85 333.26,87.00 C333.23,79.94 334.06,78.38 335.96,81.93 C337.40,84.61 337.21,90.15 335.61,92.25 ZM 349.00 92.00 C349.00,97.56 349.31,99.00 350.50,99.00 C351.69,99.00 352.00,97.56 352.00,92.00 C352.00,86.44 351.69,85.00 350.50,85.00 C349.31,85.00 349.00,86.44 349.00,92.00 ZM 607.00 87.00 C607.00,94.04 605.57,96.42 604.44,91.25 C604.10,89.74 603.66,87.95 603.46,87.28 C602.95,85.61 604.98,80.00 606.10,80.00 C606.59,80.00 607.00,83.15 607.00,87.00 ZM 449.00 88.06 C449.00,95.18 449.36,98.90 450.00,98.50 C450.56,98.15 451.00,93.32 451.00,87.44 C451.00,81.15 450.60,77.00 450.00,77.00 C449.39,77.00 449.00,81.35 449.00,88.06 ZM 390.98 95.64 C390.43,95.74 389.81,95.80 389.12,95.82 C385.90,95.95 385.00,95.58 384.48,93.94 C383.84,91.93 385.41,89.00 387.12,89.00 C387.61,89.00 388.00,89.68 388.00,90.50 C388.00,91.32 388.45,92.00 389.00,92.00 C389.55,92.00 390.00,91.17 390.00,90.15 C390.00,89.32 390.78,87.93 391.71,86.81 C390.75,88.15 390.00,90.01 390.00,91.49 C390.00,93.55 390.39,94.97 390.98,95.64 ZM 482.72 91.00 C482.95,89.75 483.64,88.33 484.46,87.18 C483.61,88.45 483.00,90.07 483.00,91.49 C483.00,93.55 483.39,94.98 483.98,95.64 C483.44,95.73 482.84,95.80 482.17,95.82 C478.89,95.95 478.13,95.61 477.66,93.79 C477.11,91.69 478.42,89.00 480.01,89.00 C480.42,89.00 481.10,90.01 481.51,91.25 C482.25,93.50 482.25,93.50 482.72,91.00 ZM 152.07 91.21 C152.38,92.39 153.63,92.15 155.00,90.50 C156.91,88.19 158.00,88.71 158.00,91.92 C158.00,93.52 158.56,95.06 159.25,95.34 C159.94,95.62 159.54,95.88 158.37,95.92 C157.20,95.96 155.68,95.32 155.00,94.50 C154.32,93.68 153.36,93.00 152.88,93.00 C152.02,93.00 151.81,93.73 152.09,94.65 C151.73,93.56 151.74,92.37 152.07,91.21 ZM 117.00 79.01 C117.07,78.97 117.13,78.93 117.20,78.89 C118.73,78.07 119.61,78.25 121.19,79.67 C121.79,80.21 122.21,80.59 122.49,80.78 C122.43,83.15 121.95,83.56 119.71,83.82 C117.17,84.11 116.98,83.91 117.57,81.57 C117.96,80.01 117.80,79.00 117.14,79.00 C117.10,79.00 117.05,79.00 117.00,79.01 ZM 254.04 104.16 L 254.04 83.00 L 254.04 69.84 L 254.04 70.75 C254.08,81.18 254.15,82.21 255.22,79.32 C254.76,81.04 254.95,82.15 256.00,81.50 C256.55,81.16 257.00,81.81 257.00,82.94 C257.00,84.07 256.55,85.00 256.00,85.00 C254.64,85.00 254.74,87.48 255.92,90.07 C255.32,88.81 254.91,87.45 254.74,86.00 C254.51,84.07 254.25,88.01 254.16,94.75 L 254.04 104.16 ZM 272.06 77.59 C271.33,78.30 270.69,80.64 270.30,84.36 C269.93,87.95 270.19,89.85 270.82,89.95 C270.33,90.11 270.00,89.54 270.00,88.11 C270.00,87.07 269.27,85.94 268.39,85.60 C267.25,85.16 266.94,85.41 267.34,86.44 C267.71,87.42 267.42,87.72 266.45,87.34 C264.63,86.64 264.63,86.22 266.50,84.36 C267.33,83.53 268.00,83.34 268.00,83.93 C268.00,86.54 269.97,84.66 270.57,81.49 C270.97,79.36 271.50,78.04 272.06,77.59 ZM 278.67 84.03 C278.59,84.44 278.51,84.85 278.44,85.25 C277.93,88.12 278.06,88.91 279.16,88.99 C279.10,89.00 279.04,89.00 278.98,89.00 C277.89,89.00 277.00,89.45 277.00,90.00 C277.00,90.55 276.55,91.00 276.00,91.00 C275.45,91.00 275.00,90.32 275.00,89.50 C275.00,88.68 275.43,88.00 275.96,88.00 C276.94,88.00 277.97,86.20 278.67,84.03 ZM 343.64 76.50 C343.95,77.32 344.57,78.00 345.00,78.00 C345.43,78.00 346.05,77.32 346.36,76.50 C346.75,75.48 346.31,75.00 345.00,75.00 C343.69,75.00 343.25,75.48 343.64,76.50 ZM 343.66 97.45 C343.29,98.42 343.58,98.71 344.55,98.34 C345.35,98.04 346.00,97.38 346.00,96.89 C346.00,95.46 344.26,95.87 343.66,97.45 ZM 415.39 75.00 L 417.06 75.00 L 416.50 98.50 L 415.51 98.58 C416.20,97.77 416.61,93.90 416.78,86.67 C417.03,76.28 416.91,75.05 415.39,75.00 ZM 179.69 75.34 C179.17,76.13 178.68,80.85 178.42,85.80 L 178.63 75.51 L 179.69 75.34 ZM 422.77 75.43 C422.38,76.50 422.04,80.93 421.88,85.87 L 421.84 75.50 L 422.77 75.43 ZM 570.00 95.00 C570.00,95.55 569.55,96.00 569.00,96.00 C568.45,96.00 568.00,95.55 568.00,95.00 C568.00,94.45 568.45,94.00 569.00,94.00 C569.55,94.00 570.00,94.45 570.00,95.00 ZM 660.00 97.00 C660.00,97.55 660.45,98.00 661.00,98.00 C661.55,98.00 662.00,97.55 662.00,97.00 C662.00,96.45 661.55,96.00 661.00,96.00 C660.45,96.00 660.00,96.45 660.00,97.00 ZM 117.73 80.92 C117.30,82.58 117.43,82.97 118.17,82.23 C118.75,81.65 119.03,80.58 118.79,79.86 C118.54,79.11 118.08,79.57 117.73,80.92 ZM 256.96 75.37 C257.54,74.30 258.15,73.36 258.65,72.79 C260.49,70.73 264.25,68.75 267.85,67.73 C263.64,69.02 259.29,71.84 257.26,74.90 C257.16,75.05 257.06,75.21 256.96,75.37 ZM 30.50 67.44 C29.78,68.29 29.50,71.93 29.50,80.15 L 29.50 67.50 L 30.50 67.44 ZM 106.52 75.42 C105.80,76.22 105.43,79.63 105.29,86.49 C105.17,92.44 105.31,97.69 105.60,98.16 C105.31,97.69 105.17,92.40 105.29,86.41 L 105.50 75.50 L 106.52 75.42 ZM 501.28 87.00 C501.43,95.39 501.84,98.92 502.66,99.00 L 501.50 99.00 ZM 444.00 93.56 L 444.00 99.00 L 442.50 99.00 C443.28,99.00 443.78,96.69 444.00,93.56 ZM 378.00 93.86 L 378.00 99.00 L 376.50 99.00 C377.27,99.00 377.76,96.84 378.00,93.86 ZM 536.00 93.92 L 536.00 99.00 L 534.53 99.00 C535.28,99.00 535.77,96.87 536.00,93.92 ZM 140.52 98.57 L 139.50 98.50 L 139.50 88.75 C139.50,95.06 139.77,97.80 140.52,98.57 ZM 133.49 98.57 C134.20,97.81 134.61,95.08 134.79,89.97 C135.02,83.65 135.64,80.51 137.02,79.44 C135.63,80.51 135.02,83.67 134.79,90.05 L 134.50 98.50 L 133.49 98.57 ZM 502.68 75.00 C501.22,75.06 501.08,76.45 501.28,87.00 L 501.05 75.00 L 502.68 75.00 ZM 640.94 98.33 C640.94,98.40 640.96,98.46 640.99,98.52 L 640.71 98.50 L 640.92 88.75 C641.05,82.08 640.95,79.84 640.21,79.21 C640.96,79.82 641.08,81.96 640.99,88.25 C640.93,93.34 640.90,97.88 640.94,98.33 ZM 463.81 99.00 L 462.43 99.00 L 462.60 94.79 C462.76,97.88 463.13,99.00 463.81,99.00 ZM 523.02 90.25 L 523.00 99.00 L 521.40 99.00 C522.74,99.00 523.00,97.61 523.02,90.25 ZM 508.43 99.00 C509.75,98.96 510.00,97.58 510.00,90.58 L 510.00 99.00 L 508.43 99.00 ZM 369.41 90.32 C369.09,97.51 369.28,99.00 370.51,99.00 L 369.03 99.00 ZM 204.95 98.25 C204.95,98.35 204.98,98.44 205.03,98.52 L 204.77 98.50 L 204.81 89.94 C204.85,83.46 204.50,80.23 203.51,79.45 C204.49,80.21 204.86,83.30 204.87,89.44 C204.88,93.87 204.91,97.84 204.95,98.25 ZM 365.00 92.50 L 365.00 99.00 L 363.50 99.00 C364.68,99.00 365.00,97.61 365.00,92.50 ZM 218.50 80.66 C219.65,78.23 221.53,76.67 224.18,75.96 C221.77,76.82 219.74,78.51 218.50,80.66 ZM 369.46 75.49 C372.31,74.64 374.77,75.09 376.35,76.83 C377.31,77.90 377.75,79.53 377.92,83.55 C377.63,80.34 377.11,77.67 376.35,76.83 C374.74,75.06 372.05,74.77 369.46,75.49 ZM 330.05 89.10 C330.07,88.42 330.09,87.73 330.10,87.02 C330.16,83.21 329.96,80.48 329.53,78.85 C330.21,80.72 330.39,84.16 330.05,89.10 ZM 401.75 77.37 C400.37,76.26 397.99,75.47 395.38,75.13 C397.66,75.32 399.69,75.80 400.78,76.56 C401.16,76.83 401.48,77.08 401.75,77.37 ZM 494.75 77.37 C493.37,76.26 490.99,75.47 488.38,75.13 C490.66,75.32 492.69,75.80 493.78,76.56 C494.16,76.83 494.48,77.08 494.75,77.37 ZM 534.35 76.83 C535.33,77.92 535.77,79.59 535.93,83.76 C535.65,80.45 535.11,77.68 534.35,76.83 ZM 280.53 97.43 C279.26,97.98 277.24,98.43 274.65,98.70 C273.13,98.85 271.65,98.87 270.22,98.76 C271.28,98.78 272.47,98.74 273.84,98.65 C276.81,98.45 279.13,98.00 280.53,97.43 ZM 145.82 76.07 C143.46,74.82 139.74,74.73 137.44,76.47 C139.75,74.72 143.64,74.60 145.82,76.07 ZM 232.88 76.27 C234.78,77.03 236.07,78.38 236.87,80.42 C236.85,80.38 236.84,80.35 236.82,80.31 C235.94,78.48 234.59,77.11 232.88,76.27 ZM 279.22 77.44 C279.71,78.13 279.81,78.99 279.53,80.00 C279.50,80.10 279.47,80.21 279.44,80.35 C279.55,79.19 279.50,78.15 279.22,77.44 ZM 443.86 83.42 C443.59,80.57 443.12,78.18 442.44,77.22 C443.22,78.34 443.66,80.13 443.86,83.42 ZM 553.21 80.24 C552.87,79.05 552.31,77.91 551.72,77.35 C552.40,77.70 552.97,78.68 553.21,80.24 ZM 464.40 75.08 C466.34,74.94 468.30,75.44 469.43,76.57 C469.45,76.59 469.47,76.61 469.49,76.63 C468.22,75.56 466.32,74.98 464.40,75.08 ZM 114.36 76.43 C114.87,76.84 115.59,76.65 116.87,75.85 C118.47,74.85 119.92,74.87 120.94,75.71 C119.80,74.96 118.30,74.96 116.80,75.89 C115.45,76.74 114.71,76.91 114.36,76.43 ZM 369.50 82.44 C369.32,79.82 368.76,79.05 367.62,79.00 C368.27,78.92 368.91,79.32 369.29,80.32 C369.39,80.58 369.46,81.34 369.50,82.44 ZM 635.60 75.05 C635.90,75.29 636.00,75.68 636.00,76.25 C636.00,76.54 636.01,76.78 636.03,76.98 C635.95,76.74 635.88,76.42 635.82,76.02 C635.75,75.62 635.68,75.30 635.60,75.05 ZM 560.93 86.55 C560.98,85.48 560.54,83.83 559.61,81.60 C560.65,84.09 561.19,85.62 560.93,86.55 ZM 100.83 90.97 C100.07,91.13 98.98,92.23 98.28,94.07 C97.57,95.95 97.03,96.69 95.88,96.86 C96.97,96.54 97.67,95.68 98.31,94.00 C98.99,92.18 100.07,91.11 100.83,90.97 ZM 48.73 94.45 C48.04,95.20 47.11,95.58 45.83,95.74 C46.84,95.53 47.80,95.14 48.56,94.58 C48.62,94.54 48.67,94.50 48.73,94.45 ZM 227.32 98.91 C230.37,99.10 233.47,98.42 235.37,96.93 C233.37,98.50 230.35,99.16 227.32,98.91 ZM 550.06 77.69 C549.53,78.36 548.99,79.45 548.60,80.59 C548.96,79.17 549.49,78.22 550.06,77.69 ZM 591.22 96.94 C590.92,96.98 590.61,97.00 590.28,97.00 C589.39,97.00 588.60,96.69 587.96,96.11 C588.83,96.76 590.05,97.05 591.22,96.94 ZM 208.69 75.21 C209.77,75.43 210.74,75.88 211.43,76.57 C211.52,76.66 211.60,76.76 211.68,76.86 C210.95,76.15 209.86,75.52 208.69,75.21 ZM 293.13 96.64 C291.63,95.04 290.74,92.51 290.43,89.76 C290.78,92.59 291.74,95.12 293.20,96.71 C293.18,96.69 293.16,96.67 293.13,96.64 ZM 292.62 78.37 C293.17,77.54 293.81,76.86 294.53,76.39 C296.25,75.26 298.05,74.97 300.50,75.43 C297.04,74.79 294.38,75.79 292.62,78.37 ZM 487.05 93.90 C487.04,93.93 487.03,93.95 487.01,93.98 C487.56,92.87 487.90,90.66 487.97,88.71 C487.94,90.64 487.63,92.82 487.05,93.90 ZM 658.40 75.37 C658.98,75.53 659.54,75.75 660.07,76.04 C660.55,76.30 660.92,76.58 661.19,77.08 C660.54,76.30 659.55,75.71 658.40,75.37 ZM 589.37 77.17 C589.64,77.06 589.92,77.00 590.21,77.00 C591.47,77.00 592.58,78.07 593.31,80.00 C592.40,77.61 590.82,76.65 589.37,77.17 ZM 228.66 77.37 C228.04,77.14 227.41,77.32 226.94,78.06 C227.52,77.14 227.91,76.92 228.66,77.37 ZM 155.44 86.55 C156.69,85.62 158.22,84.89 159.98,84.50 C158.49,84.83 156.84,85.61 155.44,86.55 ZM 93.63 78.70 C93.33,78.07 92.98,77.56 92.62,77.26 C93.04,77.42 93.40,77.89 93.63,78.70 ZM 226.00 90.91 C226.04,92.28 226.32,93.49 226.78,94.46 C226.23,93.39 225.94,92.11 226.00,90.91 ZM 394.06 93.89 C394.04,93.92 394.03,93.95 394.01,93.98 C394.49,92.98 394.74,90.63 394.74,88.58 C394.76,90.65 394.53,93.02 394.06,93.89 ZM 160.61 93.58 C160.84,94.47 161.22,95.13 161.67,95.52 C161.13,95.26 160.88,94.66 160.61,93.58 ZM 275.88 67.36 C279.99,68.16 283.35,70.36 285.50,73.20 C283.35,70.38 279.99,68.18 275.88,67.36 ZM 190.49 79.25 C190.00,79.05 189.37,79.29 188.58,79.93 C188.59,79.93 188.60,79.92 188.61,79.91 C189.48,79.19 189.97,78.95 190.49,79.25 ZM 101.99 87.25 C101.99,87.31 101.94,87.36 101.83,87.42 C101.92,87.14 101.91,86.73 101.80,86.14 C101.92,86.69 101.99,87.09 101.99,87.25 ZM 202.21 76.56 C203.17,75.90 204.28,75.45 205.42,75.23 C204.25,75.50 203.02,76.00 202.21,76.56 ZM 282.79 86.02 C283.64,84.43 284.20,82.40 284.20,80.43 C284.20,82.48 283.65,84.47 282.79,86.02 ZM 595.00 91.73 C595.00,92.88 594.82,93.84 594.48,94.62 C594.79,93.78 595.00,92.71 595.00,91.73 ZM 649.50 77.30 C650.05,77.29 650.61,76.99 651.45,76.40 C651.60,76.29 651.77,76.18 651.94,76.09 C651.78,76.18 651.62,76.29 651.47,76.40 C650.63,77.01 650.07,77.31 649.50,77.30 ZM 260.97 95.72 C260.18,95.20 259.44,94.62 258.78,93.99 C259.44,94.58 260.19,95.18 260.97,95.72 ZM 134.26 75.89 C134.31,76.11 134.28,76.40 134.20,76.75 C134.17,76.89 134.15,77.02 134.14,77.14 C134.14,76.98 134.16,76.78 134.21,76.57 C134.26,76.32 134.27,76.09 134.26,75.89 ZM 487.15 85.00 C487.17,85.00 487.19,85.00 487.21,85.00 C486.80,85.04 486.38,85.23 485.96,85.54 C486.39,85.20 486.80,85.00 487.15,85.00 ZM 643.77 75.07 C644.91,75.07 645.96,75.39 646.98,76.03 C645.93,75.40 644.89,75.08 643.77,75.07 ZM 274.14 75.41 C275.28,75.50 276.25,75.69 277.05,75.97 C276.20,75.70 275.17,75.49 274.14,75.41 ZM 394.50 98.08 C400.31,98.35 403.16,98.38 404.54,98.09 C403.18,98.39 400.36,98.35 394.50,98.08 ZM 154.25 97.50 C153.36,96.86 152.74,96.11 152.34,95.28 C152.72,96.06 153.39,96.88 154.25,97.50 ZM 138.48 79.02 C139.17,79.33 139.50,82.49 139.50,88.67 L 139.50 88.75 C139.50,82.51 139.17,79.33 138.48,79.02 ZM 327.34 77.44 C327.11,77.63 326.86,77.90 326.59,78.24 C326.84,77.89 327.09,77.62 327.34,77.44 ZM 327.44 96.74 C327.21,96.63 326.97,96.42 326.73,96.11 C326.96,96.38 327.20,96.59 327.44,96.74 ZM 429.96 76.08 C429.99,76.19 430.00,76.31 430.00,76.44 C430.00,77.62 430.34,78.08 431.18,77.82 C430.35,78.08 430.00,77.64 430.00,76.50 C430.00,76.35 429.99,76.21 429.96,76.08 ZM 274.16 80.79 C274.13,80.17 274.03,79.61 273.84,79.11 C273.85,79.13 273.86,79.15 273.87,79.17 C274.04,79.64 274.14,80.18 274.16,80.79 ZM 135.02 77.86 C135.58,77.72 136.40,77.25 137.44,76.47 C136.39,77.27 135.58,77.73 135.02,77.86 ZM 351.76 75.80 C351.93,76.00 352.00,76.25 352.00,76.56 C352.00,76.28 351.91,76.02 351.76,75.80 ZM 509.78 75.82 C509.93,76.02 510.00,76.26 510.00,76.56 C510.00,76.29 509.92,76.04 509.78,75.82 ZM 458.32 77.78 C458.83,77.60 459.53,77.16 460.44,76.47 C459.52,77.16 458.83,77.60 458.32,77.78 ZM 652.47 79.00 C652.39,79.00 652.31,79.01 652.23,79.02 C652.29,79.01 652.35,79.00 652.41,79.00 C652.43,79.00 652.45,79.00 652.47,79.00 ZM 639.52 79.00 C639.50,79.00 639.47,79.00 639.45,79.00 C639.47,79.00 639.49,79.00 639.51,79.00 L 639.52 79.00 Z" fill="rgba(0,0,0,1)"/>
<path d="M 643.00 45.00 L 643.00 50.00 L 659.50 50.00 C643.67,50.00 643.00,50.08 643.00,52.00 C643.00,53.91 643.67,54.00 658.00,54.00 L 673.00 54.00 L 673.00 112.00 L 249.00 112.00 L 249.00 54.00 L 443.50 54.00 C637.33,54.00 638.00,53.99 638.00,52.00 C638.00,50.00 637.33,50.00 345.00,50.00 L 638.00 50.00 L 638.00 38.50 C638.00,32.23 638.09,32.00 640.50,32.00 C642.91,32.00 643.00,32.23 643.00,38.50 L 643.00 45.00 ZM 668.00 59.00 L 254.04 59.00 L 254.04 107.00 L 668.00 107.00 L 668.00 59.00 ZM 475.92 40.59 C475.69,40.36 475.63,33.16 475.80,24.59 L 476.10 9.00 L 484.60 9.00 C498.36,9.00 502.99,12.98 503.00,24.80 C503.00,36.96 498.50,40.99 484.92,41.00 C480.20,41.00 476.15,40.81 475.92,40.59 ZM 533.00 17.22 L 536.75 16.73 C539.31,16.40 540.87,16.71 541.67,17.70 C542.56,18.82 543.30,18.91 544.85,18.08 C547.50,16.66 551.31,16.71 552.77,18.17 C553.67,19.07 554.55,19.07 556.52,18.17 C560.64,16.29 564.69,16.72 566.44,19.22 C567.59,20.87 568.00,23.99 568.00,31.22 L 568.00 41.00 L 559.07 41.00 L 558.79 31.25 C558.56,23.38 558.21,21.50 557.00,21.50 C555.81,21.50 555.40,23.44 555.00,31.00 L 554.50 40.50 L 545.78 40.50 L 545.64 31.00 C545.53,23.29 545.22,21.50 544.00,21.50 C542.79,21.50 542.44,23.38 542.21,31.25 L 541.93 41.00 L 533.00 41.00 L 533.00 17.22 ZM 511.36 40.01 C507.77,38.56 506.00,34.99 506.00,29.21 C506.00,26.27 506.46,23.00 507.03,21.94 C510.06,16.29 522.32,15.34 526.69,20.43 C528.50,22.53 529.00,24.31 529.00,28.62 C529.00,31.65 528.54,35.00 527.97,36.06 C525.75,40.21 517.01,42.29 511.36,40.01 ZM 611.00 17.21 L 615.15 16.81 C618.48,16.50 619.39,16.77 619.76,18.19 C620.18,19.78 620.43,19.81 622.33,18.48 C623.49,17.67 625.89,17.00 627.67,17.00 C632.79,17.00 634.00,19.72 634.00,31.22 L 634.00 41.00 L 625.00 41.00 L 625.00 31.56 C625.00,21.75 623.90,19.04 621.35,22.54 C620.47,23.73 620.00,27.30 620.00,32.69 L 620.00 41.00 L 611.00 41.00 L 611.00 17.21 ZM 572.65 39.17 C568.98,35.11 571.54,28.95 577.75,26.95 C579.81,26.28 582.06,25.29 582.75,24.75 C584.87,23.06 584.20,20.09 581.56,19.42 C578.34,18.62 577.00,19.56 577.00,22.63 C577.00,24.49 576.54,25.06 575.25,24.81 C572.57,24.30 572.52,20.45 575.17,18.60 C578.18,16.49 587.79,16.46 590.78,18.56 C592.79,19.97 593.00,20.95 593.00,29.06 C593.00,36.34 593.28,38.00 594.50,38.00 C595.33,38.00 596.00,38.67 596.00,39.50 C596.00,40.63 594.78,41.00 591.06,41.00 C588.34,41.00 585.84,40.55 585.50,40.00 C585.08,39.33 584.26,39.33 583.01,40.00 C579.97,41.62 574.48,41.19 572.65,39.17 ZM 597.96 40.63 C597.71,40.38 597.64,35.01 597.81,28.69 L 598.12 17.21 L 601.81 16.74 C603.84,16.49 605.68,16.43 605.89,16.62 C606.11,16.80 606.33,22.25 606.39,28.72 L 606.50 40.50 L 602.46 40.80 C600.24,40.96 598.22,40.89 597.96,40.63 ZM 491.44 35.78 C492.57,34.18 493.00,31.10 493.00,24.78 C493.00,17.33 492.70,15.70 491.00,14.00 C489.90,12.90 488.10,12.00 487.00,12.00 C485.10,12.00 485.00,12.67 485.00,25.00 L 485.00 38.00 L 487.44 38.00 C488.83,38.00 490.56,37.04 491.44,35.78 ZM 520.00 29.00 C520.00,23.79 519.57,20.88 518.68,20.15 C516.21,18.10 515.00,21.02 515.00,29.00 C515.00,36.98 516.21,39.90 518.68,37.85 C519.57,37.12 520.00,34.21 520.00,29.00 ZM 598.39 12.56 C597.25,9.60 598.78,7.85 602.24,8.19 C604.97,8.45 605.50,8.91 605.50,11.00 C605.50,13.09 604.97,13.55 602.24,13.81 C600.00,14.03 598.80,13.64 598.39,12.56 ZM 583.80 32.74 C583.97,30.13 583.72,28.00 583.25,28.00 C581.36,28.00 580.00,30.61 580.00,34.27 C580.00,37.42 580.33,38.08 581.75,37.81 C583.07,37.56 583.58,36.31 583.80,32.74 Z" fill="rgba(33,177,75,1)"/>
<path d="M 41.00 121.00 L 11.00 121.00 L 11.00 45.00 L 47.00 45.00 L 47.00 50.00 L 16.00 50.00 L 16.00 116.00 L 676.00 116.00 L 676.00 50.00 L 643.00 50.00 L 643.00 45.00 L 681.00 45.00 L 681.00 121.00 L 46.00 121.00 L 46.00 149.00 L 41.00 149.00 L 41.00 121.00 ZM 52.00 45.00 L 638.00 45.00 L 638.00 50.00 L 52.00 50.00 L 52.00 45.00 ZM 421.00 134.00 L 423.42 134.00 C424.75,134.00 426.55,133.73 427.42,133.39 C428.46,132.99 429.00,133.34 429.00,134.39 C429.00,136.21 431.53,136.57 432.56,134.90 C432.97,134.23 434.64,134.06 436.87,134.45 C441.45,135.25 443.56,135.24 448.26,134.43 C454.36,133.37 455.00,134.58 455.00,147.12 L 455.00 158.00 L 447.00 158.00 L 447.00 148.56 C447.00,139.17 446.08,136.52 443.66,138.94 C443.01,139.59 442.35,144.06 442.15,149.10 L 441.80 158.11 L 437.65 157.80 L 433.50 157.50 L 433.21 147.75 C433.05,142.19 432.50,138.00 431.94,138.00 C430.17,138.00 429.00,142.98 429.00,150.57 L 429.00 158.00 L 421.00 158.00 L 421.00 134.00 ZM 289.00 134.21 L 293.07 133.82 C295.32,133.61 297.38,133.81 297.67,134.27 C297.96,134.74 299.49,134.83 301.07,134.48 C307.72,133.02 311.00,137.15 311.00,147.00 C311.00,152.21 310.63,153.46 308.42,155.67 C306.28,157.81 305.20,158.16 301.98,157.72 L 298.11 157.20 L 297.80 161.35 C297.50,165.46 297.46,165.50 293.25,165.81 L 289.00 166.11 L 289.00 134.21 ZM 163.00 126.00 L 172.05 126.00 C185.06,126.00 188.00,127.83 188.00,135.91 C188.00,141.32 184.60,144.20 177.51,144.79 L 172.00 145.25 L 172.00 158.00 L 163.00 158.00 L 163.00 126.00 ZM 367.00 142.00 L 367.00 126.00 L 369.99 126.00 C372.68,126.00 373.69,127.05 379.74,136.15 L 386.50 146.31 L 386.78 136.15 C387.05,126.78 387.22,126.00 389.06,126.00 C390.98,126.00 391.04,126.60 390.78,141.75 L 390.50 157.50 L 386.92 157.80 C383.40,158.10 383.21,157.92 376.92,148.37 L 370.50 138.63 L 370.21 148.31 C369.99,156.02 369.63,158.00 368.46,158.00 C367.24,158.00 367.00,155.38 367.00,142.00 ZM 225.00 134.00 L 227.42 134.00 C228.75,134.00 230.58,133.72 231.48,133.37 C232.61,132.94 233.29,133.39 233.67,134.85 C234.18,136.78 234.40,136.83 236.33,135.48 C238.80,133.75 242.33,133.57 245.07,135.04 C246.80,135.96 247.00,137.22 247.00,147.09 L 247.00 158.11 L 238.50 157.50 L 238.21 147.75 C238.06,142.39 237.55,138.00 237.09,138.00 C235.02,138.00 234.07,141.20 233.79,149.05 L 233.50 157.50 L 225.00 158.11 L 225.00 134.00 ZM 396.10 156.10 C391.99,151.99 394.28,146.03 400.75,143.95 C402.81,143.28 405.06,142.29 405.75,141.75 C407.87,140.06 407.20,137.09 404.56,136.42 C401.34,135.62 400.00,136.56 400.00,139.63 C400.00,142.81 396.65,142.55 396.19,139.34 C395.72,136.02 399.51,134.00 406.22,134.00 C414.71,134.00 416.00,135.64 416.00,146.39 C416.00,153.31 416.29,154.90 417.67,155.43 C420.89,156.66 417.39,158.26 412.84,157.63 C407.52,156.90 407.47,156.90 402.35,157.61 C398.97,158.08 397.80,157.80 396.10,156.10 ZM 57.50 157.05 C56.40,156.60 54.60,155.24 53.50,154.01 C51.72,152.04 51.50,150.39 51.50,139.15 L 51.50 126.50 L 56.25 126.20 L 61.00 125.89 L 61.00 139.41 C61.00,151.75 61.17,153.02 62.93,153.96 C65.92,155.56 68.51,155.20 70.60,152.90 C72.20,151.12 72.55,148.87 72.85,138.40 C73.13,128.62 73.50,126.00 74.60,126.00 C75.72,126.00 76.00,128.39 76.00,137.95 C76.00,151.14 75.10,154.38 70.85,156.57 C67.87,158.12 60.72,158.37 57.50,157.05 ZM 105.95 155.25 C97.95,148.10 103.25,134.00 113.93,134.00 C118.10,134.00 122.73,138.45 123.57,143.25 L 124.22 147.00 L 110.84 147.00 L 111.54 150.25 C111.92,152.04 112.68,154.06 113.24,154.75 C115.40,157.44 120.00,155.44 120.00,151.80 C120.00,150.65 120.74,150.00 122.07,150.00 C123.74,150.00 124.01,150.43 123.48,152.25 C122.36,156.11 119.21,158.00 113.90,158.00 C110.00,158.00 108.42,157.45 105.95,155.25 ZM 464.11 156.60 C455.84,152.02 458.05,136.88 467.31,134.57 C473.96,132.91 479.49,136.75 480.19,143.50 L 480.50 146.50 L 474.25 146.80 C468.54,147.07 468.00,147.29 468.00,149.33 C468.00,152.30 470.69,156.00 472.86,156.00 C475.11,156.00 477.00,154.08 477.00,151.80 C477.00,150.08 479.01,149.34 480.27,150.60 C481.36,151.69 478.82,155.76 476.34,156.89 C473.08,158.38 467.05,158.24 464.11,156.60 ZM 332.11 156.60 C324.91,152.62 325.45,139.40 332.97,135.52 C339.58,132.10 346.34,135.12 347.94,142.20 C348.39,144.23 348.52,146.15 348.22,146.45 C347.91,146.75 345.04,147.00 341.83,147.00 C336.43,147.00 336.00,147.17 336.00,149.28 C336.00,152.30 338.68,156.00 340.86,156.00 C343.11,156.00 345.00,154.08 345.00,151.80 C345.00,150.81 345.65,150.00 346.44,150.00 C349.22,150.00 349.10,152.05 346.14,155.01 C343.73,157.43 342.32,157.99 338.83,157.96 C336.45,157.95 333.42,157.33 332.11,156.60 ZM 81.45 155.55 C78.46,152.55 78.26,150.00 81.02,150.00 C82.26,150.00 83.42,150.97 83.99,152.47 C84.94,154.96 88.98,156.75 90.94,155.54 C93.12,154.19 91.86,151.97 87.75,149.90 C81.49,146.76 80.00,145.11 80.00,141.33 C80.00,138.61 80.62,137.59 83.25,135.99 C87.72,133.27 93.20,133.41 96.60,136.34 C98.17,137.68 99.02,139.17 98.60,139.84 C97.42,141.74 95.34,141.17 93.55,138.44 C91.64,135.52 87.73,135.40 87.19,138.25 C86.95,139.52 88.11,140.55 91.36,141.94 C100.01,145.65 102.33,150.76 97.55,155.55 C95.52,157.57 94.10,158.00 89.50,158.00 C84.90,158.00 83.48,157.57 81.45,155.55 ZM 315.00 126.22 L 318.75 125.75 C320.81,125.49 322.84,125.47 323.25,125.70 C323.66,125.93 324.00,133.29 324.00,142.06 L 324.00 158.00 L 315.00 158.00 L 315.00 126.22 ZM 191.00 134.00 L 195.50 134.00 C198.16,134.00 200.00,134.46 200.00,135.12 C200.00,135.92 200.42,135.89 201.44,135.05 C203.32,133.49 207.02,134.06 208.30,136.10 C208.84,136.97 208.99,138.89 208.63,140.35 C208.09,142.47 207.37,143.00 204.99,143.00 C202.64,143.00 202.07,142.60 202.26,141.06 C202.39,140.00 202.05,138.99 201.50,138.81 C200.90,138.63 200.30,142.34 200.00,148.00 L 199.50 157.50 L 191.00 158.11 L 191.00 134.00 ZM 127.43 156.68 C127.15,155.96 127.06,150.67 127.21,144.93 L 127.50 134.50 L 131.40 134.18 C133.76,133.99 135.60,134.36 136.07,135.12 C136.69,136.12 137.15,136.12 138.37,135.11 C139.21,134.41 140.93,133.99 142.19,134.17 C144.16,134.45 144.50,135.08 144.50,138.50 C144.50,142.12 144.24,142.53 141.75,142.82 C139.38,143.09 139.00,142.78 139.00,140.57 C139.00,139.15 138.60,138.00 138.12,138.00 C136.70,138.00 136.03,141.93 136.01,150.25 L 136.00 158.00 L 131.97 158.00 C129.56,158.00 127.73,157.47 127.43,156.68 ZM 256.11 156.60 C248.91,152.62 249.45,139.40 256.97,135.52 C263.35,132.22 272.74,134.93 271.80,139.80 C271.24,142.72 268.53,142.26 267.32,139.03 C264.81,132.38 260.00,137.15 260.00,146.29 C260.00,149.50 260.47,153.00 261.04,154.07 C263.13,157.97 269.00,155.29 269.00,150.43 C269.00,148.67 269.55,148.00 271.00,148.00 C273.29,148.00 273.40,148.55 271.95,152.71 C271.37,154.37 269.78,156.24 268.40,156.86 C265.09,158.37 259.07,158.25 256.11,156.60 ZM 211.43 156.68 C211.15,155.96 211.06,150.68 211.21,144.95 L 211.50 134.53 L 215.24 133.92 C217.30,133.59 219.21,133.55 219.49,133.83 C219.77,134.10 220.00,139.66 220.00,146.17 L 220.00 158.00 L 215.97 158.00 C213.56,158.00 211.73,157.47 211.43,156.68 ZM 275.43 156.68 C275.15,155.96 275.06,150.68 275.21,144.95 L 275.50 134.53 L 279.24 133.92 C281.30,133.59 283.21,133.55 283.49,133.83 C283.77,134.10 284.00,139.66 284.00,146.17 L 284.00 158.00 L 279.97 158.00 C277.56,158.00 275.73,157.47 275.43,156.68 ZM 177.43 140.43 C180.92,136.94 178.49,129.00 173.93,129.00 C172.22,129.00 172.00,129.75 172.00,135.50 C172.00,141.25 172.22,142.00 173.93,142.00 C174.99,142.00 176.56,141.29 177.43,140.43 ZM 301.79 146.51 C302.10,138.53 301.08,135.52 298.85,137.75 C297.59,139.01 297.26,151.99 298.44,153.91 C300.24,156.81 301.51,153.99 301.79,146.51 ZM 276.39 129.56 C275.25,126.60 276.78,124.85 280.24,125.19 C282.97,125.45 283.50,125.91 283.50,128.00 C283.50,130.09 282.97,130.55 280.24,130.81 C278.00,131.03 276.80,130.64 276.39,129.56 ZM 212.39 129.56 C211.25,126.60 212.78,124.85 216.24,125.19 C218.97,125.45 219.50,125.91 219.50,128.00 C219.50,130.09 218.97,130.55 216.24,130.81 C214.00,131.03 212.80,130.64 212.39,129.56 ZM 406.80 149.74 C406.97,147.13 406.72,145.00 406.25,145.00 C404.36,145.00 403.00,147.61 403.00,151.27 C403.00,154.42 403.33,155.08 404.75,154.81 C406.07,154.56 406.58,153.31 406.80,149.74 ZM 473.00 141.93 C473.00,140.80 472.52,138.97 471.93,137.87 C470.47,135.14 468.00,137.19 468.00,141.12 C468.00,143.53 468.41,144.00 470.50,144.00 C472.36,144.00 473.00,143.47 473.00,141.93 ZM 341.00 141.93 C341.00,140.80 340.49,138.92 339.87,137.75 C338.77,135.71 338.69,135.70 337.37,137.51 C336.62,138.54 336.00,140.42 336.00,141.69 C336.00,143.49 336.56,144.00 338.50,144.00 C340.36,144.00 341.00,143.47 341.00,141.93 ZM 116.00 141.12 C116.00,139.54 115.33,137.69 114.52,137.01 C113.29,135.99 112.86,136.24 112.02,138.46 C110.41,142.69 110.76,144.00 113.50,144.00 C115.59,144.00 116.00,143.53 116.00,141.12 Z" fill="rgba(254,241,1,1)"/>
<path d="M 20.00 55.00 L 47.00 55.00 L 47.00 32.00 L 52.00 32.00 L 52.00 55.00 L 246.00 55.00 L 246.00 111.00 L 20.00 111.00 L 20.00 55.00 ZM 241.00 60.00 L 25.00 60.00 L 25.00 106.00 L 241.00 106.00 L 241.00 60.00 ZM 395.33 19.77 C395.44,18.56 395.58,17.79 395.75,17.69 C396.16,17.46 398.19,16.96 400.25,16.59 C403.34,16.03 404.00,16.20 404.00,17.56 C404.00,18.78 404.46,19.00 405.75,18.41 C406.71,17.96 409.19,17.67 411.25,17.77 C418.69,18.10 419.55,18.07 423.09,17.45 C429.03,16.41 430.00,18.26 430.00,30.63 L 430.00 41.11 L 425.75 40.81 L 421.50 40.50 L 421.45 38.88 C421.64,39.62 421.90,39.87 422.25,39.75 C423.13,39.46 423.50,36.58 423.50,30.00 C423.50,23.42 423.13,20.54 422.25,20.25 C421.46,19.99 421.11,21.62 421.03,26.69 C420.81,23.34 420.47,21.00 420.16,21.00 C417.85,21.00 417.00,24.01 417.00,32.20 L 417.00 41.00 L 408.00 41.00 L 408.00 31.00 C408.00,25.24 407.59,21.00 407.04,21.00 C405.05,21.00 404.00,25.12 404.00,32.93 L 404.00 41.00 L 400.17 41.00 C399.02,41.00 397.89,40.91 397.05,40.77 C397.78,40.04 398.00,36.90 398.00,30.11 C398.00,21.35 397.71,19.10 396.50,18.64 C395.92,18.41 395.55,18.61 395.33,19.77 ZM 109.00 24.95 L 109.00 8.89 L 113.71 9.20 L 118.42 9.50 L 121.07 18.00 C123.39,25.44 123.72,26.30 124.58,24.36 C123.72,26.34 123.48,25.76 121.60,19.82 C119.49,13.11 118.16,10.49 118.53,13.75 C119.58,23.08 120.45,26.20 122.36,27.54 C125.47,29.72 126.68,29.34 128.02,25.75 C129.24,22.51 129.25,22.50 129.93,25.00 L 130.62 27.50 L 131.35 24.65 C132.90,18.64 127.37,17.86 124.89,23.62 C125.50,22.09 126.00,20.63 126.00,20.34 C126.00,20.05 126.71,17.38 127.57,14.40 L 129.14 9.00 L 139.00 9.00 L 139.00 25.00 C139.00,11.56 138.82,10.04 137.50,11.36 C135.50,13.35 135.28,39.54 137.25,40.34 C137.94,40.62 138.61,40.88 138.75,40.92 C138.89,40.96 139.00,33.99 139.00,25.43 L 139.00 41.00 L 130.00 41.00 L 130.00 31.80 C130.00,26.27 129.64,22.98 129.09,23.55 C128.59,24.07 127.20,28.21 125.98,32.75 C125.90,33.05 125.83,33.34 125.75,33.62 C125.92,32.52 125.93,31.59 125.67,31.34 C124.87,30.54 122.21,36.33 122.72,37.76 C122.97,38.45 123.55,38.78 124.01,38.49 C124.19,38.38 124.38,38.12 124.56,37.75 C123.56,40.77 122.90,41.00 121.03,41.00 C119.10,41.00 118.45,40.74 117.35,37.40 C117.56,37.78 117.77,38.00 117.94,38.00 C119.63,38.00 119.84,36.55 118.57,33.52 C117.83,31.75 116.91,28.42 116.52,26.13 C115.70,21.25 113.21,18.07 111.87,20.18 C110.75,21.95 110.78,23.26 111.93,22.55 C112.17,22.40 112.50,22.72 112.89,23.47 C112.21,22.75 112.05,25.40 112.03,31.25 C112.01,39.24 111.73,41.00 110.50,41.00 C109.23,41.00 109.00,38.55 109.00,24.95 ZM 284.43 39.68 C284.33,39.42 284.25,38.55 284.20,37.27 C284.40,39.27 284.79,39.63 285.50,39.36 C286.68,38.91 287.00,36.87 287.00,29.82 C287.00,23.19 286.61,20.47 285.50,19.36 C285.01,18.87 284.68,18.70 284.45,19.17 L 284.50 17.53 L 288.38 16.90 C291.65,16.37 292.34,16.57 292.75,18.17 C293.21,19.92 293.43,19.95 295.59,18.53 C298.75,16.46 303.33,16.60 305.35,18.83 C305.46,18.96 305.58,19.10 305.68,19.25 C305.47,19.34 305.23,19.60 304.96,20.03 C303.50,22.34 303.75,39.75 305.25,40.25 C306.18,40.56 306.57,38.23 306.79,31.16 C306.87,28.36 306.90,26.08 306.85,24.29 C306.96,25.93 307.00,28.05 307.00,30.83 L 307.00 41.00 L 297.84 41.00 L 298.12 31.32 C298.42,21.06 297.52,18.99 294.59,23.17 C293.47,24.78 293.00,27.73 293.00,33.22 L 293.00 41.00 L 288.97 41.00 C286.56,41.00 284.73,40.47 284.43,39.68 ZM 80.00 40.47 C80.00,40.24 80.49,38.53 81.18,36.32 C80.97,37.48 81.52,38.00 82.93,38.00 C84.36,38.00 85.00,37.36 85.00,35.93 C85.00,33.62 82.33,33.63 81.42,35.54 C81.56,35.11 81.70,34.67 81.84,34.22 C82.40,32.48 83.29,29.57 84.24,26.40 C83.73,29.06 83.80,30.93 84.46,31.67 C85.23,32.54 85.82,32.15 86.70,30.17 C86.99,29.55 87.22,28.99 87.40,28.49 C87.18,29.67 87.22,30.31 87.55,30.64 C88.01,31.10 89.05,31.00 90.75,31.00 L 94.73 31.00 L 93.95 28.45 C94.27,28.78 94.69,29.00 95.09,29.00 C95.94,29.00 95.95,28.65 95.13,27.66 C94.52,26.92 94.30,26.03 94.65,25.68 C95.00,25.33 94.77,24.43 94.15,23.68 C93.53,22.93 93.29,22.04 93.63,21.70 C93.97,21.37 93.95,19.92 93.58,18.48 C93.10,16.53 92.39,15.95 90.79,16.19 C89.62,16.36 88.45,17.13 88.19,17.91 C87.88,18.87 88.24,19.12 89.34,18.70 C89.71,18.56 90.04,18.53 90.32,18.66 C89.95,18.73 89.65,19.76 89.18,21.50 C88.64,23.53 88.20,25.13 87.88,26.39 C87.94,25.22 87.50,24.36 86.56,23.42 C85.97,22.82 85.59,22.59 85.27,22.92 C85.69,21.48 86.10,20.07 86.48,18.75 L 89.28 9.00 L 97.66 9.00 L 101.83 23.98 C102.00,24.58 102.16,25.18 102.33,25.77 C101.78,24.01 101.28,22.62 100.94,22.00 C100.44,21.10 100.28,22.43 100.54,25.30 C100.78,27.94 101.43,30.94 101.99,31.98 C102.55,33.02 103.00,35.05 103.00,36.49 C103.00,37.99 103.43,38.85 104.00,38.50 C104.55,38.16 105.00,38.43 105.00,39.11 C105.00,39.78 105.24,40.09 105.53,39.80 C105.75,39.58 105.34,37.34 104.68,34.49 C105.49,37.60 106.00,39.69 106.00,39.98 C106.00,40.54 103.99,41.00 101.53,41.00 C97.60,41.00 97.06,40.83 96.36,38.31 C96.57,38.48 96.82,38.32 97.12,37.84 C98.40,35.82 98.17,34.00 96.64,34.00 C95.82,34.00 95.51,34.65 95.68,36.03 C95.06,34.58 94.07,34.50 90.47,34.50 C85.80,34.50 85.53,34.65 84.64,37.75 C84.02,39.91 83.09,41.00 81.86,41.00 C80.83,41.00 80.00,40.76 80.00,40.47 ZM 173.00 39.08 C173.00,34.80 171.98,34.00 166.50,34.00 C161.76,34.00 161.15,34.25 160.62,36.39 C160.48,36.92 160.21,37.46 159.85,37.95 C159.83,37.60 159.57,37.18 159.06,36.58 C158.06,35.37 158.05,35.00 158.98,35.00 C159.70,35.00 159.96,34.33 159.60,33.41 C159.21,32.37 159.63,31.65 160.83,31.34 C161.87,31.06 162.77,29.69 163.55,27.16 C162.64,30.85 163.36,31.00 166.52,31.00 C169.85,31.00 170.00,30.86 169.37,28.25 C169.29,27.95 169.20,27.60 169.10,27.20 C169.95,29.67 170.79,30.54 171.59,29.74 C171.85,29.49 171.53,27.98 170.88,26.39 C170.23,24.80 169.65,22.38 169.60,21.00 C169.47,17.64 168.28,16.00 165.97,16.00 C164.15,16.00 162.73,17.88 160.93,23.13 C162.29,18.57 163.69,13.87 164.18,12.25 C165.07,9.30 165.52,9.00 169.10,9.00 C172.43,9.00 173.20,9.41 174.03,11.58 C174.57,13.01 174.78,14.55 174.49,15.01 C174.20,15.48 174.37,16.11 174.87,16.42 C175.65,16.90 177.25,22.46 177.48,25.50 C177.52,26.05 177.83,26.95 178.17,27.50 C178.63,28.24 180.07,32.73 181.05,36.19 C180.46,34.81 179.69,33.40 179.27,33.26 C177.86,32.79 178.87,37.19 180.41,38.23 C181.01,38.64 181.57,38.98 181.66,38.98 C181.71,38.99 181.75,38.97 181.77,38.93 C181.92,39.54 182.00,39.98 182.00,40.18 C182.00,40.63 179.98,41.00 177.50,41.00 C173.73,41.00 173.00,40.69 173.00,39.08 ZM 71.20 35.98 C70.81,37.09 71.11,37.03 72.41,35.74 C74.24,33.90 73.89,30.99 71.61,29.09 C70.89,28.49 67.27,26.90 63.58,25.56 C59.85,24.21 58.18,23.73 57.89,24.01 C56.57,22.34 56.00,20.39 56.00,17.95 C56.00,13.09 59.43,9.93 65.42,9.26 C70.99,8.63 75.36,10.30 76.88,13.64 C78.22,16.58 77.61,18.00 75.01,18.00 C74.90,18.00 74.79,17.99 74.68,17.98 C76.07,17.61 76.68,13.07 75.25,12.93 C74.84,12.88 73.38,12.67 72.00,12.44 C69.89,12.09 69.77,12.19 71.25,13.06 C72.21,13.63 73.00,14.98 73.00,16.05 C73.00,16.30 73.04,16.53 73.10,16.75 C72.97,16.47 72.87,16.14 72.82,15.77 C72.43,13.08 68.40,11.43 64.58,12.39 C62.50,12.91 61.94,13.59 62.19,15.29 C62.22,15.55 62.30,15.81 62.43,16.07 C62.12,15.50 61.71,14.82 61.20,14.03 C61.03,13.77 60.49,14.20 60.00,15.00 C59.48,15.84 59.49,16.89 60.04,17.55 C60.55,18.16 61.61,18.67 62.39,18.67 C63.38,18.67 63.46,18.00 62.53,16.24 C63.27,17.51 65.19,18.80 68.91,20.59 C70.72,21.46 72.57,22.52 74.08,23.51 C74.02,23.68 74.00,23.95 74.00,24.32 C74.00,25.18 75.00,26.59 76.22,27.44 C77.25,28.16 78.23,28.78 78.61,28.95 C79.22,31.30 79.04,34.05 77.97,36.06 C76.14,39.48 69.74,41.47 64.36,40.91 C65.75,40.46 64.81,38.23 62.50,37.18 C60.64,36.33 60.00,35.27 60.00,33.02 C60.00,31.53 59.83,30.72 59.30,30.32 C59.82,30.72 60.00,31.51 60.00,32.96 C60.00,37.64 66.92,39.94 70.43,36.43 C71.06,35.79 71.38,35.13 71.40,34.45 C71.45,34.95 71.39,35.46 71.20,35.98 ZM 357.69 28.65 C360.43,32.84 365.00,31.05 365.00,25.80 C365.00,21.98 363.25,22.26 362.21,26.25 L 361.52 28.91 L 361.78 19.25 C362.01,11.21 362.38,9.00 363.48,9.00 C364.63,9.00 364.96,11.88 365.20,24.01 C365.36,32.27 365.35,39.47 365.17,40.01 C364.98,40.56 363.27,41.00 361.37,41.00 C359.86,41.00 358.94,40.89 357.82,39.90 C359.15,38.41 348.95,20.75 345.39,18.70 C344.63,18.26 344.00,16.77 344.00,15.38 C344.00,13.99 343.33,12.18 342.50,11.36 C342.02,10.87 341.69,10.76 341.46,11.44 L 341.50 9.50 L 344.56 9.20 C347.44,8.92 348.07,9.55 354.56,19.20 L 361.40 29.35 L 361.36 29.50 L 357.93 24.27 C356.04,21.39 354.19,19.03 353.80,19.02 C352.96,19.00 355.53,25.36 357.69,28.65 ZM 276.99 30.83 C276.99,37.24 277.20,40.02 277.80,40.64 L 275.60 40.82 C273.37,41.00 271.39,40.64 270.98,39.97 C270.44,39.10 269.72,39.08 268.19,39.90 C267.07,40.50 265.68,40.84 264.28,40.93 L 262.17 38.69 C260.28,36.67 260.00,35.23 260.00,27.63 C260.00,22.60 259.61,19.12 259.09,19.45 C258.58,19.76 257.94,19.45 257.66,18.76 C257.39,18.07 257.12,22.08 257.08,27.68 C257.04,32.43 257.14,35.25 257.49,37.01 C257.12,35.22 257.00,32.35 257.00,27.54 L 257.00 17.22 L 260.75 16.75 C261.68,16.63 262.61,16.56 263.38,16.54 C262.71,17.57 262.59,20.63 262.81,26.75 C263.07,33.95 263.46,36.00 264.57,36.00 C265.69,36.00 265.99,34.13 266.00,26.86 C266.00,26.92 266.00,26.99 266.00,27.06 C266.00,35.30 266.26,37.00 267.52,37.00 C269.81,37.00 271.00,32.73 271.00,24.57 L 271.00 17.26 L 274.73 16.66 C275.20,16.58 275.67,16.53 276.13,16.49 C276.04,16.82 276.13,17.35 276.34,18.15 C276.69,19.44 276.98,25.15 276.99,30.83 ZM 381.39 36.42 C382.57,33.36 382.06,28.00 380.60,28.00 C379.34,28.00 378.01,30.68 377.63,33.21 C377.37,30.33 375.60,30.84 375.18,34.33 C374.97,36.10 375.34,37.00 376.27,37.00 C376.93,37.00 377.39,36.39 377.57,35.27 C377.60,35.50 377.64,35.72 377.69,35.93 C378.19,37.84 379.64,38.44 380.67,37.53 C379.63,39.36 379.93,40.24 381.47,39.65 C381.78,39.53 382.11,39.48 382.42,39.50 C382.03,39.54 381.56,39.70 381.01,40.00 C379.44,40.84 377.22,41.13 375.19,40.93 C376.26,40.82 375.87,40.38 373.69,38.47 C371.50,36.53 369.81,35.77 369.21,36.04 C368.77,33.69 369.31,31.03 370.82,29.67 C371.19,29.33 371.78,28.93 372.48,28.53 C372.56,28.69 372.77,28.88 373.12,29.09 C374.95,30.25 375.75,30.22 376.54,28.93 C377.36,27.60 376.74,26.96 375.08,27.24 C375.56,27.03 376.05,26.84 376.51,26.68 C380.44,25.32 382.26,23.56 381.71,21.73 C382.38,22.65 382.69,22.52 383.28,21.47 C384.35,19.55 383.34,17.93 381.52,18.63 C380.58,18.99 380.38,19.39 380.87,20.36 C379.46,18.90 377.30,18.87 375.80,19.74 C376.32,18.90 375.70,18.07 374.23,18.00 C377.53,16.97 382.53,16.59 384.71,17.53 C385.69,17.96 387.07,18.22 387.76,18.11 C388.39,18.01 388.95,18.41 389.41,19.27 C389.13,19.04 388.93,19.65 388.51,21.24 C388.11,22.75 387.95,27.59 388.15,31.99 C388.37,36.77 388.11,40.17 387.51,40.42 C386.95,40.65 387.94,40.88 389.69,40.92 C389.82,40.92 389.94,40.92 390.06,40.92 C388.54,41.03 386.81,40.98 385.50,40.77 C385.80,40.51 385.95,40.02 385.82,39.36 C385.35,36.94 382.64,35.45 381.31,36.62 C381.34,36.56 381.37,36.49 381.39,36.42 ZM 447.29 23.59 C447.25,23.05 447.19,22.57 447.10,22.14 C447.72,23.36 448.63,23.15 449.99,21.51 C450.67,20.69 451.63,20.27 452.11,20.57 C452.49,20.81 452.76,20.94 452.93,20.99 C453.82,22.30 454.45,23.90 454.69,25.75 L 455.26 30.00 L 449.13 30.00 C443.57,30.00 443.00,30.20 443.00,32.10 C443.00,30.90 442.36,30.00 441.50,30.00 C439.58,30.00 439.58,31.96 441.50,34.69 C443.96,38.22 440.98,38.21 437.25,34.68 C435.70,33.22 434.69,32.53 434.25,32.62 C434.10,31.34 434.09,29.91 434.22,28.32 C434.40,26.16 434.62,24.71 435.04,23.54 C435.37,24.68 437.52,23.24 437.87,21.45 C438.13,20.09 438.06,19.81 437.22,20.43 C437.42,20.23 437.63,20.04 437.86,19.83 C441.25,16.80 445.34,16.21 448.66,17.53 C447.02,17.14 446.18,18.26 446.60,20.51 C445.38,17.92 443.04,19.38 443.02,24.32 C443.00,26.68 443.37,27.09 445.25,26.82 C447.05,26.56 447.46,25.92 447.29,23.59 ZM 319.50 18.00 C319.16,18.55 319.36,19.00 319.94,19.00 C320.53,19.00 321.00,16.98 321.00,14.43 C321.00,11.29 320.92,10.33 320.05,10.29 C320.89,10.29 321.00,11.08 321.00,13.43 C321.00,15.94 321.45,17.00 322.50,17.00 C323.33,17.00 324.00,17.67 324.00,18.50 C324.00,19.33 323.33,20.00 322.50,20.00 C321.28,20.00 321.00,21.66 321.00,28.97 C321.00,21.66 320.72,20.00 319.50,20.00 C318.27,20.00 318.00,21.79 318.00,30.07 L 318.00 40.14 L 315.00 38.00 C313.18,36.70 312.40,36.32 312.12,36.73 C311.99,35.27 312.02,33.08 312.13,29.66 C312.38,21.69 312.20,20.47 310.71,20.18 C308.61,19.78 308.42,17.00 310.50,17.00 C311.86,17.00 312.45,15.80 312.11,13.73 C312.01,13.09 313.43,12.32 316.96,11.14 C314.13,12.16 313.86,12.82 315.84,13.45 C317.03,13.83 318.00,14.78 318.00,15.57 C318.00,16.36 318.48,17.00 319.06,17.00 C319.64,17.00 319.84,17.45 319.50,18.00 ZM 201.34 22.95 C202.64,23.44 203.38,23.63 203.72,23.40 C203.44,23.98 202.92,24.51 202.12,24.94 C200.51,25.80 200.15,25.51 199.64,22.95 C198.84,18.94 196.21,18.03 193.84,20.94 C192.01,23.20 191.37,30.61 192.54,35.41 L 191.80 33.50 L 190.93 35.75 C189.66,39.05 187.27,38.52 186.45,34.75 C186.07,32.96 185.27,31.19 184.68,30.82 C183.93,30.34 183.95,29.41 184.74,27.67 C185.88,25.17 185.44,23.61 183.86,24.59 C183.84,24.60 183.81,24.62 183.79,24.64 C185.51,19.90 189.93,17.00 195.95,17.00 C196.81,17.00 197.63,17.10 198.39,17.28 C198.37,17.30 198.35,17.32 198.32,17.34 C197.26,18.41 199.28,22.17 201.34,22.95 ZM 230.89 23.57 C232.63,18.76 237.01,16.52 243.56,17.25 C243.81,17.28 244.06,17.31 244.30,17.35 C244.23,17.46 244.28,17.64 244.43,17.89 C244.84,18.54 244.39,19.00 243.36,19.00 C241.99,19.00 241.87,19.27 242.80,20.20 C242.97,20.37 243.13,20.70 243.27,21.16 C243.08,20.65 242.85,20.29 242.57,20.06 C241.43,19.11 240.92,19.27 240.07,20.87 C238.76,23.31 238.69,32.34 239.88,36.14 C238.89,34.65 237.00,34.53 237.00,36.41 C237.00,38.85 233.52,37.47 233.21,34.91 C233.05,33.58 232.39,31.46 231.76,30.19 C230.88,28.45 230.88,27.42 231.74,26.05 C232.91,24.17 232.39,22.66 230.89,23.57 ZM 223.00 23.27 C223.00,23.41 223.01,23.54 223.03,23.66 C222.94,23.44 222.87,23.19 222.83,22.91 C222.65,21.70 221.69,20.21 220.69,19.60 C219.25,18.72 218.59,18.89 217.44,20.44 C216.92,21.15 216.53,22.76 216.29,24.74 C216.43,20.38 216.13,20.47 214.66,21.81 C213.10,23.22 212.86,24.65 213.17,30.74 C213.55,38.26 212.79,39.57 209.95,36.25 C209.13,35.29 208.55,33.27 208.67,31.77 C208.78,30.27 208.42,28.76 207.87,28.42 C207.28,28.06 206.86,28.02 206.58,28.22 C206.87,25.18 208.15,22.21 210.43,20.07 C213.52,17.17 218.97,16.56 222.74,17.68 C222.37,17.72 222.06,17.90 221.84,18.26 C221.42,18.93 221.51,19.91 222.04,20.44 C222.57,20.97 223.00,22.24 223.00,23.27 ZM 252.15 31.11 C252.74,31.49 253.15,31.75 253.42,31.83 C253.11,33.46 252.53,35.02 251.74,36.34 C251.52,36.28 250.79,36.49 249.46,36.87 L 246.50 37.72 L 246.50 28.86 C246.50,21.09 246.72,20.00 248.25,20.00 C249.21,20.00 250.00,20.45 250.00,21.00 C250.00,21.55 250.55,22.00 251.22,22.00 C251.56,22.00 251.70,21.87 251.67,21.66 C252.27,22.63 252.76,23.79 253.17,25.16 C253.29,25.57 253.39,25.98 253.47,26.40 C253.28,26.20 253.04,26.15 252.75,26.25 C250.96,26.85 250.56,30.11 252.15,31.11 ZM 408.00 30.47 C408.00,30.65 408.00,30.83 408.00,31.00 C408.01,38.54 408.26,39.84 409.50,39.36 C410.68,38.91 411.00,36.88 411.00,29.89 C411.00,22.65 410.72,21.00 409.50,21.00 C408.27,21.00 408.00,22.72 408.00,30.47 ZM 197.00 40.22 C197.00,40.46 197.02,40.64 197.10,40.76 C195.52,40.97 193.81,40.97 192.19,40.75 C193.48,40.51 193.81,39.18 193.07,36.84 C194.24,38.95 196.71,39.31 198.55,38.14 C197.66,38.98 197.00,39.85 197.00,40.22 ZM 440.00 25.62 C440.00,26.38 440.67,27.00 441.50,27.00 C442.45,27.00 443.00,26.04 443.00,24.38 C443.00,22.16 442.77,21.95 441.50,23.00 C440.67,23.68 440.00,24.86 440.00,25.62 ZM 382.03 29.75 C382.06,31.36 382.15,31.35 383.13,29.65 C384.53,27.25 382.65,24.95 380.80,26.80 C379.87,27.73 379.87,28.00 380.80,28.00 C381.46,28.00 382.01,28.79 382.03,29.75 ZM 278.52 16.57 C278.87,16.63 279.13,16.73 279.26,16.86 C279.70,17.30 279.94,22.81 279.78,29.08 L 279.50 40.50 L 278.49 40.58 C279.22,39.77 279.50,36.26 279.50,28.43 C279.50,19.88 279.40,17.40 278.52,16.57 ZM 244.43 40.11 C244.33,40.28 244.28,40.42 244.28,40.53 C242.80,40.73 241.24,40.81 239.79,40.73 C240.58,40.32 240.81,39.24 240.42,37.51 C241.03,38.81 241.50,38.83 242.52,37.99 C242.82,37.73 243.08,37.35 243.28,36.80 C243.14,37.28 242.98,37.62 242.80,37.80 C241.87,38.73 241.99,39.00 243.36,39.00 C244.39,39.00 244.84,39.46 244.43,40.11 ZM 221.38 38.69 C219.02,40.58 218.64,40.92 219.93,40.98 C218.51,41.17 217.02,41.16 215.60,40.94 C217.06,40.62 217.84,39.12 217.28,37.88 C218.57,39.11 220.11,39.27 221.42,38.65 C221.41,38.66 221.39,38.68 221.38,38.69 ZM 414.43 19.89 C414.78,20.45 415.77,20.64 416.64,20.31 C418.05,19.77 418.04,19.60 416.53,18.76 C414.64,17.70 413.47,18.33 414.43,19.89 ZM 390.56 23.39 C390.85,25.30 391.00,27.69 391.00,30.46 C391.00,33.37 391.09,35.25 391.34,36.46 C391.07,35.21 390.96,33.23 390.93,30.14 C390.91,27.72 390.77,25.26 390.56,23.39 ZM 439.31 39.99 C437.51,39.27 436.18,38.07 435.32,36.39 C436.39,37.96 437.95,39.44 439.36,40.01 C442.27,41.18 445.74,41.21 448.67,40.46 C445.73,41.21 442.25,41.17 439.31,39.99 ZM 210.49 38.81 C208.86,37.45 207.72,35.60 207.10,33.55 C207.88,35.56 209.10,37.63 210.49,38.81 ZM 203.92 22.76 C203.90,22.37 203.76,21.81 203.52,21.07 C203.36,20.56 203.02,20.01 202.58,19.50 C203.60,20.51 204.11,21.68 203.92,22.76 ZM 156.42 38.32 C156.52,37.77 156.70,37.10 156.92,36.41 C157.19,35.54 157.80,33.54 158.54,31.11 C157.63,34.34 156.78,37.21 156.42,38.32 ZM 230.76 34.17 C230.29,32.72 230.05,31.07 230.04,29.20 C230.03,28.87 230.04,28.55 230.05,28.24 C230.08,30.24 230.33,32.49 230.76,34.17 ZM 248.12 39.58 C248.98,39.10 249.82,38.52 250.46,37.90 C250.71,37.67 250.93,37.46 251.11,37.28 C250.77,37.73 250.39,38.14 249.99,38.51 C249.54,38.92 248.90,39.28 248.12,39.58 ZM 349.58 28.05 L 345.50 21.70 L 345.21 31.35 C345.05,36.91 344.82,39.46 344.27,40.45 C344.79,39.37 345.06,36.60 345.21,31.30 L 345.50 21.61 L 349.58 28.05 ZM 201.04 33.44 C201.01,33.64 201.00,33.85 201.00,34.07 C201.00,34.75 200.64,35.66 200.09,36.48 C200.35,36.01 200.56,35.46 200.68,34.85 C200.78,34.33 200.91,33.86 201.04,33.44 ZM 265.92 22.55 C265.78,19.46 265.49,17.31 265.08,16.64 C265.15,16.66 265.21,16.68 265.25,16.70 C265.54,16.86 265.80,19.24 265.92,22.55 ZM 164.08 25.18 C164.68,22.80 165.16,21.13 165.57,20.13 L 164.67 23.15 C164.45,23.90 164.26,24.57 164.08,25.18 ZM 226.81 22.29 C226.95,21.17 226.28,19.91 225.38,18.99 C226.43,19.83 227.00,20.95 226.81,22.29 ZM 166.94 19.51 C167.28,20.17 167.63,21.47 168.06,23.37 C168.06,23.38 168.06,23.38 168.06,23.39 C167.88,22.73 167.69,22.09 167.52,21.50 L 166.94 19.51 ZM 341.44 39.70 C341.31,39.37 341.22,37.64 341.18,35.07 C341.27,37.40 341.40,39.13 341.53,39.90 C341.50,39.84 341.47,39.77 341.44,39.70 ZM 235.11 39.66 C233.94,38.99 232.97,38.12 232.21,37.06 C233.04,38.07 234.17,39.08 235.11,39.60 C235.42,39.78 235.72,39.93 236.01,40.07 C235.68,39.95 235.38,39.82 235.11,39.66 ZM 183.53 33.93 C183.18,32.61 183.00,31.10 183.00,29.39 C183.00,29.04 183.01,28.70 183.03,28.36 C182.99,30.16 183.16,32.26 183.53,33.93 ZM 216.14 33.76 C216.28,35.26 216.52,36.51 216.85,37.25 C216.84,37.24 216.83,37.23 216.81,37.21 C216.48,36.88 216.25,35.61 216.14,33.76 ZM 395.67 40.33 C395.30,39.97 395.09,36.38 395.03,32.17 C395.12,36.61 395.37,40.04 395.67,40.33 ZM 250.61 20.26 C249.99,19.68 249.16,19.05 248.29,18.52 C249.19,18.97 249.95,19.54 250.61,20.26 ZM 91.91 21.86 C91.46,20.49 91.12,19.60 90.84,19.11 C91.21,19.61 91.54,20.49 91.91,21.86 ZM 224.87 24.79 C225.67,24.55 226.48,23.78 226.75,22.64 C226.46,23.90 225.67,24.64 224.87,24.79 ZM 370.24 22.44 C370.22,21.61 370.56,20.61 371.30,19.60 C371.39,19.48 371.50,19.37 371.63,19.25 C370.84,20.13 370.28,21.33 370.24,22.44 ZM 392.23 40.62 C392.91,40.41 393.39,40.12 393.59,39.79 C393.57,39.86 393.54,39.93 393.50,39.99 C393.34,40.25 392.88,40.46 392.23,40.62 ZM 187.70 39.40 C186.66,38.84 185.79,38.11 185.10,37.20 C185.84,38.08 186.80,38.91 187.70,39.40 ZM 204.23 31.83 C203.63,31.23 202.96,31.11 202.38,31.35 C202.94,31.03 203.57,31.17 204.23,31.83 ZM 158.36 39.40 C157.88,39.72 157.40,39.92 157.00,39.92 C157.36,39.87 157.82,39.69 158.36,39.40 ZM 67.67 30.14 C66.79,29.62 65.76,29.10 64.58,28.58 C63.63,28.16 62.76,27.73 61.98,27.29 C62.84,27.76 63.77,28.22 64.70,28.62 C65.83,29.13 66.82,29.63 67.67,30.14 ZM 319.79 40.94 C322.10,40.67 324.00,39.71 324.00,38.29 C324.00,39.72 322.11,40.68 319.79,40.94 ZM 374.24 23.30 C374.26,23.61 374.13,23.89 373.88,24.10 C374.07,23.88 374.20,23.61 374.24,23.30 ZM 224.88 31.37 C224.43,31.77 224.25,32.51 224.25,33.69 C224.25,33.96 224.23,34.23 224.18,34.50 C224.23,34.18 224.25,33.84 224.25,33.50 C224.25,32.44 224.44,31.75 224.88,31.37 ZM 313.67 39.88 C313.30,39.66 313.00,39.42 312.77,39.08 C313.05,39.41 313.39,39.71 313.75,39.92 C313.77,39.93 313.78,39.94 313.80,39.95 C313.76,39.92 313.71,39.90 313.67,39.88 ZM 343.51 41.00 C343.48,41.00 343.46,41.00 343.43,41.00 C343.20,41.00 342.96,40.95 342.73,40.87 C342.98,40.94 343.26,40.99 343.51,41.00 ZM 210.71 38.98 C210.70,38.98 210.69,38.97 210.68,38.97 C210.77,39.03 210.86,39.10 210.95,39.17 C210.87,39.11 210.79,39.05 210.71,38.98 Z" fill="rgba(255,126,37,1)"/>
<path d="M 341.67 40.33 C341.30,39.97 341.00,32.96 341.00,24.76 C341.00,11.51 341.17,10.02 342.50,11.36 C343.33,12.18 344.00,13.99 344.00,15.38 C344.00,16.77 344.63,18.26 345.39,18.70 C349.11,20.84 360.07,40.00 357.58,40.00 C357.34,40.00 354.53,35.86 351.33,30.80 L 345.50 21.61 L 345.21 31.30 C345.00,38.43 344.58,41.00 343.63,41.00 C342.92,41.00 342.03,40.70 341.67,40.33 ZM 156.28 38.70 C156.56,37.99 157.78,33.83 159.00,29.45 C161.84,19.32 163.56,16.00 165.97,16.00 C168.28,16.00 169.47,17.64 169.60,21.00 C169.65,22.38 170.23,24.80 170.88,26.39 C171.53,27.98 171.85,29.49 171.59,29.74 C170.47,30.87 169.24,28.67 168.06,23.37 C166.64,17.05 166.03,17.39 163.96,25.68 C163.08,29.16 162.06,31.01 160.83,31.34 C159.63,31.65 159.21,32.37 159.60,33.41 C159.96,34.33 159.70,35.00 158.98,35.00 C158.05,35.00 158.06,35.37 159.06,36.58 C160.15,37.88 160.13,38.31 158.94,39.06 C156.88,40.36 155.71,40.21 156.28,38.70 ZM 439.36 40.01 C436.91,39.02 434.00,35.26 434.00,33.08 C434.00,32.11 435.11,32.66 437.25,34.68 C440.98,38.21 443.96,38.22 441.50,34.69 C439.58,31.96 439.58,30.00 441.50,30.00 C442.36,30.00 443.00,30.90 443.00,32.10 C443.00,33.25 443.75,35.46 444.66,37.00 C446.10,39.44 446.63,39.67 448.61,38.77 C449.87,38.20 451.03,36.78 451.20,35.62 C451.60,32.82 455.00,32.13 455.00,34.85 C455.00,39.59 445.81,42.61 439.36,40.01 ZM 210.66 38.95 C206.87,35.96 204.28,26.20 207.87,28.42 C208.42,28.76 208.78,30.27 208.67,31.77 C208.55,33.27 209.13,35.29 209.95,36.25 C212.79,39.57 213.55,38.26 213.17,30.74 C212.86,24.65 213.10,23.22 214.66,21.81 C216.45,20.19 216.50,20.40 216.14,28.16 C215.93,32.85 216.21,36.61 216.81,37.21 C218.25,38.65 217.14,41.00 215.03,41.00 C214.06,41.00 212.09,40.08 210.66,38.95 ZM 244.43 40.11 C244.84,39.46 244.39,39.00 243.36,39.00 C241.99,39.00 241.87,38.73 242.80,37.80 C243.52,37.08 244.00,33.58 244.00,29.00 C244.00,24.42 243.52,20.92 242.80,20.20 C241.87,19.27 241.99,19.00 243.36,19.00 C244.39,19.00 244.84,18.54 244.43,17.89 C243.97,17.14 244.50,17.01 246.12,17.50 C248.89,18.33 253.05,22.00 251.22,22.00 C250.55,22.00 250.00,21.55 250.00,21.00 C250.00,20.45 249.21,20.00 248.25,20.00 C246.72,20.00 246.50,21.09 246.50,28.86 L 246.50 37.72 L 249.46 36.87 C252.39,36.03 252.40,36.04 250.46,37.90 C248.19,40.09 243.35,41.86 244.43,40.11 ZM 313.75 39.92 C312.79,39.36 312.00,38.22 312.00,37.38 C312.00,36.16 312.59,36.28 315.00,38.00 L 318.00 40.14 L 318.00 30.07 C318.00,21.79 318.27,20.00 319.50,20.00 C320.72,20.00 321.00,21.66 321.00,28.97 C321.00,36.53 321.24,37.85 322.50,37.36 C323.42,37.01 324.00,37.36 324.00,38.29 C324.00,40.94 317.33,42.01 313.75,39.92 ZM 137.25 40.34 C135.28,39.54 135.50,13.35 137.50,11.36 C138.83,10.02 139.00,11.59 139.00,25.43 C139.00,33.99 138.89,40.96 138.75,40.92 C138.61,40.88 137.94,40.62 137.25,40.34 ZM 122.36 27.54 C120.45,26.20 119.58,23.08 118.53,13.75 C118.16,10.49 119.49,13.11 121.60,19.82 C123.63,26.26 123.75,26.40 124.81,23.81 C127.24,17.84 132.92,18.57 131.35,24.65 L 130.62 27.50 L 129.93 25.00 C129.25,22.50 129.24,22.51 128.02,25.75 C126.68,29.34 125.47,29.72 122.36,27.54 ZM 258.57 39.43 C257.34,38.19 257.02,35.68 257.08,27.68 C257.12,22.08 257.39,18.07 257.66,18.76 C257.94,19.45 258.58,19.76 259.09,19.45 C259.61,19.12 260.00,22.60 260.00,27.63 C260.00,35.23 260.28,36.67 262.17,38.69 L 264.35 41.00 L 262.25 41.00 C261.09,41.00 259.44,40.29 258.57,39.43 ZM 387.51 40.42 C388.11,40.17 388.37,36.77 388.15,31.99 C387.95,27.59 388.11,22.75 388.51,21.24 C389.17,18.72 389.29,18.66 390.04,20.50 C390.49,21.60 390.89,25.94 390.93,30.14 C390.98,36.11 391.34,37.92 392.56,38.39 C395.06,39.34 393.18,41.01 389.69,40.92 C387.94,40.88 386.95,40.65 387.51,40.42 ZM 276.99 30.83 C276.98,25.15 276.69,19.44 276.34,18.15 C275.83,16.22 276.05,15.86 277.61,16.16 C279.34,16.50 279.50,17.55 279.50,28.43 C279.50,37.06 279.16,40.45 278.25,40.75 C277.30,41.07 277.00,38.65 276.99,30.83 ZM 395.67 40.33 C395.30,39.97 395.00,34.81 395.00,28.86 C395.00,19.67 395.22,18.15 396.50,18.64 C397.71,19.10 398.00,21.35 398.00,30.11 C398.00,40.08 397.52,42.19 395.67,40.33 ZM 262.81 26.75 C262.47,17.42 262.92,15.22 264.91,16.45 C265.57,16.85 266.00,20.84 266.00,26.56 C266.00,34.08 265.71,36.00 264.57,36.00 C263.46,36.00 263.07,33.95 262.81,26.75 ZM 284.00 28.90 C284.00,19.08 284.17,18.02 285.50,19.36 C286.61,20.47 287.00,23.19 287.00,29.82 C287.00,36.87 286.68,38.91 285.50,39.36 C284.22,39.85 284.00,38.30 284.00,28.90 ZM 235.11 39.60 C233.80,38.88 232.12,37.20 231.40,35.89 C229.91,33.21 229.53,24.41 230.86,23.59 C232.38,22.65 232.92,24.16 231.74,26.05 C230.88,27.42 230.88,28.45 231.76,30.19 C232.39,31.46 233.05,33.58 233.21,34.91 C233.52,37.47 237.00,38.85 237.00,36.41 C237.00,34.16 239.71,34.78 240.34,37.17 C241.36,41.10 239.43,42.00 235.11,39.60 ZM 187.70 39.40 C186.17,38.57 184.48,36.76 183.95,35.38 C182.77,32.25 182.71,25.30 183.86,24.59 C185.44,23.61 185.88,25.17 184.74,27.67 C183.95,29.41 183.93,30.34 184.68,30.82 C185.27,31.19 186.07,32.96 186.45,34.75 C187.27,38.52 189.66,39.05 190.93,35.75 L 191.80 33.50 L 192.77 36.00 C194.62,40.79 192.68,42.10 187.70,39.40 ZM 60.00 39.71 C57.17,38.27 54.56,33.60 55.38,31.44 C55.69,30.65 56.85,30.00 57.97,30.00 C59.56,30.00 60.00,30.65 60.00,33.02 C60.00,35.27 60.64,36.33 62.50,37.18 C65.08,38.36 65.96,41.01 63.75,40.99 C63.06,40.98 61.38,40.40 60.00,39.71 ZM 305.25 40.25 C303.75,39.75 303.50,22.34 304.96,20.03 C306.56,17.50 307.10,20.80 306.79,31.16 C306.57,38.23 306.18,40.56 305.25,40.25 ZM 408.00 30.47 C408.00,22.72 408.27,21.00 409.50,21.00 C410.72,21.00 411.00,22.65 411.00,29.89 C411.00,36.88 410.68,38.91 409.50,39.36 C408.23,39.85 408.00,38.47 408.00,30.47 ZM 71.20 35.98 C72.13,33.37 70.02,30.98 64.70,28.62 C61.84,27.36 58.91,25.60 58.18,24.73 C57.15,23.48 58.34,23.66 63.58,25.56 C67.27,26.90 70.89,28.49 71.61,29.09 C73.89,30.99 74.24,33.90 72.41,35.74 C71.11,37.03 70.81,37.09 71.20,35.98 ZM 116.54 35.25 C114.49,26.86 112.74,22.04 111.93,22.55 C110.78,23.26 110.75,21.95 111.87,20.18 C113.21,18.07 115.70,21.25 116.52,26.13 C116.91,28.42 117.83,31.75 118.57,33.52 C119.84,36.55 119.63,38.00 117.94,38.00 C117.54,38.00 116.91,36.76 116.54,35.25 ZM 357.69 28.65 C355.53,25.36 352.96,19.00 353.80,19.02 C354.19,19.03 356.04,21.39 357.93,24.27 L 361.36 29.50 L 362.21 26.25 C363.25,22.26 365.00,21.98 365.00,25.80 C365.00,31.05 360.43,32.84 357.69,28.65 ZM 421.00 30.00 C421.00,22.31 421.30,19.93 422.25,20.25 C423.13,20.54 423.50,23.42 423.50,30.00 C423.50,36.58 423.13,39.46 422.25,39.75 C421.30,40.07 421.00,37.69 421.00,30.00 ZM 221.38 38.69 C223.26,37.18 224.25,35.46 224.25,33.69 C224.25,31.73 224.76,31.00 226.12,31.00 C228.89,31.00 228.54,35.55 225.55,38.55 C224.20,39.90 222.06,41.00 220.80,41.00 C218.57,40.99 218.59,40.92 221.38,38.69 ZM 197.00 40.22 C197.00,39.79 197.90,38.67 199.00,37.73 C200.10,36.79 201.00,35.14 201.00,34.07 C201.00,31.66 202.81,30.41 204.23,31.83 C205.81,33.41 203.37,38.51 200.39,39.87 C197.45,41.21 197.00,41.25 197.00,40.22 ZM 105.00 39.11 C105.00,38.43 104.55,38.16 104.00,38.50 C103.43,38.85 103.00,37.99 103.00,36.49 C103.00,35.05 102.55,33.02 101.99,31.98 C101.43,30.94 100.78,27.94 100.54,25.30 C100.28,22.43 100.44,21.10 100.94,22.00 C102.30,24.44 106.11,39.22 105.53,39.80 C105.24,40.09 105.00,39.78 105.00,39.11 ZM 93.52 27.75 C93.29,27.06 92.61,24.61 92.02,22.29 C91.19,19.05 90.58,18.23 89.34,18.70 C88.24,19.12 87.88,18.87 88.19,17.91 C88.45,17.13 89.62,16.36 90.79,16.19 C92.39,15.95 93.10,16.53 93.58,18.48 C93.95,19.92 93.97,21.37 93.63,21.70 C93.29,22.04 93.53,22.93 94.15,23.68 C94.77,24.43 95.00,25.33 94.65,25.68 C94.30,26.03 94.52,26.92 95.13,27.66 C95.95,28.65 95.94,29.00 95.09,29.00 C94.46,29.00 93.75,28.44 93.52,27.75 ZM 319.50 18.00 C319.84,17.45 319.64,17.00 319.06,17.00 C318.48,17.00 318.00,16.36 318.00,15.57 C318.00,14.78 317.03,13.83 315.84,13.45 C313.50,12.71 314.30,11.92 318.75,10.55 C320.86,9.91 321.00,10.16 321.00,14.43 C321.00,16.98 320.53,19.00 319.94,19.00 C319.36,19.00 319.16,18.55 319.50,18.00 ZM 84.46 31.67 C83.79,30.92 83.72,28.98 84.27,26.24 C85.01,22.53 85.31,22.17 86.56,23.42 C88.28,25.14 88.31,26.61 86.70,30.17 C85.82,32.15 85.23,32.54 84.46,31.67 ZM 370.42 23.65 C369.57,21.44 371.78,18.00 374.04,18.00 C376.13,18.00 376.68,19.46 374.97,20.52 C374.41,20.87 374.07,21.89 374.22,22.79 C374.58,24.88 371.19,25.65 370.42,23.65 ZM 223.00 23.27 C223.00,22.24 222.57,20.97 222.04,20.44 C221.51,19.91 221.42,18.93 221.84,18.26 C223.05,16.30 227.18,19.70 226.81,22.34 C226.41,25.07 223.00,25.92 223.00,23.27 ZM 201.34 22.95 C199.28,22.17 197.26,18.41 198.32,17.34 C199.26,16.40 202.86,18.98 203.52,21.07 C204.35,23.69 204.03,23.97 201.34,22.95 ZM 446.74 21.11 C445.84,17.69 447.50,16.44 450.41,18.35 C452.72,19.87 454.30,21.92 452.11,20.57 C451.63,20.27 450.67,20.69 449.99,21.51 C448.33,23.51 447.33,23.39 446.74,21.11 ZM 383.53 40.04 C383.20,39.52 382.28,39.34 381.47,39.65 C379.79,40.29 379.59,39.19 380.99,37.00 C382.14,35.19 385.31,36.73 385.82,39.36 C386.17,41.12 384.50,41.62 383.53,40.04 ZM 73.00 16.05 C73.00,14.98 72.21,13.63 71.25,13.06 C69.77,12.19 69.89,12.09 72.00,12.44 C73.38,12.67 74.84,12.88 75.25,12.93 C76.74,13.07 76.02,18.00 74.50,18.00 C73.68,18.00 73.00,17.12 73.00,16.05 ZM 370.65 39.17 C367.19,35.34 369.52,34.80 373.69,38.47 C376.29,40.76 376.35,40.94 374.40,40.97 C373.25,40.99 371.57,40.18 370.65,39.17 ZM 122.72 37.76 C122.21,36.33 124.87,30.54 125.67,31.34 C126.39,32.05 125.04,37.86 124.01,38.49 C123.55,38.78 122.97,38.45 122.72,37.76 ZM 252.15 31.11 C250.56,30.11 250.96,26.85 252.75,26.25 C253.57,25.98 254.00,26.89 254.00,28.92 C254.00,30.83 254.01,31.67 253.69,31.82 C253.44,31.94 252.98,31.64 252.15,31.11 ZM 81.19 36.26 C81.69,33.65 85.00,33.36 85.00,35.93 C85.00,37.36 84.36,38.00 82.93,38.00 C81.50,38.00 80.96,37.46 81.19,36.26 ZM 375.18 34.33 C375.63,30.56 377.67,30.27 377.67,33.97 C377.67,35.90 377.16,37.00 376.27,37.00 C375.34,37.00 374.97,36.10 375.18,34.33 ZM 60.04 17.55 C59.49,16.89 59.48,15.84 60.00,15.00 C60.49,14.20 61.03,13.77 61.20,14.03 C63.41,17.46 63.72,18.67 62.39,18.67 C61.61,18.67 60.55,18.16 60.04,17.55 ZM 76.22 27.44 C75.00,26.59 74.00,25.18 74.00,24.32 C74.00,23.02 74.26,22.97 75.55,24.05 C77.02,25.26 79.44,29.00 78.76,29.00 C78.59,29.00 77.44,28.30 76.22,27.44 ZM 440.00 25.62 C440.00,24.86 440.67,23.68 441.50,23.00 C442.77,21.95 443.00,22.16 443.00,24.38 C443.00,26.04 442.45,27.00 441.50,27.00 C440.67,27.00 440.00,26.38 440.00,25.62 ZM 180.41 38.23 C178.87,37.19 177.86,32.79 179.27,33.26 C180.13,33.54 182.43,39.06 181.66,38.98 C181.57,38.98 181.01,38.64 180.41,38.23 ZM 382.03 29.75 C382.01,28.79 381.46,28.00 380.80,28.00 C379.87,28.00 379.87,27.73 380.80,26.80 C382.65,24.95 384.53,27.25 383.13,29.65 C382.15,31.35 382.06,31.36 382.03,29.75 ZM 373.12 29.09 C372.04,28.41 372.22,28.07 373.94,27.52 C376.42,26.73 377.53,27.33 376.54,28.93 C375.75,30.22 374.95,30.25 373.12,29.09 ZM 381.27 21.06 C380.33,19.56 380.38,19.07 381.52,18.63 C383.34,17.93 384.35,19.55 383.28,21.47 C382.58,22.72 382.27,22.66 381.27,21.06 ZM 95.77 36.59 C95.44,34.83 95.71,34.00 96.64,34.00 C98.17,34.00 98.40,35.82 97.12,37.84 C96.50,38.82 96.13,38.48 95.77,36.59 ZM 435.00 23.21 C435.00,22.68 435.73,21.64 436.62,20.90 C438.01,19.74 438.18,19.82 437.87,21.45 C437.49,23.39 435.00,24.92 435.00,23.21 ZM 414.43 19.89 C413.47,18.33 414.64,17.70 416.53,18.76 C418.04,19.60 418.05,19.77 416.64,20.31 C415.77,20.64 414.78,20.45 414.43,19.89 Z" fill="rgba(255,129,43,1)"/>
<path d="M 35.50 98.05 C34.40,97.60 32.60,96.24 31.50,95.01 C29.72,93.04 29.50,91.39 29.50,80.24 C29.50,71.08 29.84,67.56 30.75,67.26 C31.70,66.93 32.00,69.66 32.00,78.78 C32.00,93.73 32.93,95.44 41.20,95.79 C50.03,96.16 50.44,95.48 50.83,80.08 C51.09,69.60 51.44,67.00 52.58,67.00 C54.66,67.00 54.61,89.91 52.53,93.94 C50.29,98.27 41.32,100.44 35.50,98.05 ZM 61.32 97.99 C59.16,97.13 57.00,94.15 57.00,92.07 C57.00,89.97 60.70,91.05 61.81,93.47 C63.25,96.63 67.59,97.84 69.75,95.68 C71.19,94.24 71.04,93.94 68.06,92.30 C59.83,87.78 58.51,86.52 58.20,82.92 C57.81,78.25 60.50,75.85 66.81,75.24 C70.95,74.85 72.05,75.15 74.57,77.37 C77.04,79.56 77.26,80.12 76.00,80.97 C74.20,82.17 72.40,81.69 72.76,80.11 C73.09,78.60 68.56,76.57 66.56,77.34 C63.53,78.50 65.05,80.96 70.33,83.46 C76.55,86.40 78.83,89.72 77.42,93.76 C76.89,95.24 75.35,97.02 73.98,97.71 C71.15,99.15 64.55,99.29 61.32,97.99 ZM 74.39 93.42 C75.60,90.27 74.92,89.14 70.55,87.02 C68.10,85.84 65.83,84.04 65.51,83.03 C64.77,80.69 62.13,79.65 60.46,81.03 C58.80,82.41 62.11,86.06 66.71,87.92 C68.56,88.66 70.47,90.44 71.21,92.11 C72.65,95.37 73.51,95.72 74.39,93.42 ZM 86.50 98.11 C82.49,96.36 80.50,93.02 80.50,88.05 C80.50,82.35 82.46,78.33 86.16,76.41 C92.46,73.16 99.08,76.02 100.96,82.80 C102.34,87.77 102.30,88.00 100.03,88.00 C98.65,88.00 98.24,87.53 98.66,86.43 C99.45,84.39 96.98,79.80 95.41,80.40 C94.74,80.65 93.96,79.95 93.66,78.83 C92.92,75.96 90.70,77.06 89.62,80.83 C88.61,84.37 87.00,85.08 87.00,82.00 C87.00,79.54 86.14,79.45 84.39,81.75 C82.39,84.39 82.69,90.41 84.97,93.14 L 86.93 95.50 L 86.97 92.75 C87.01,89.07 88.32,89.28 90.07,93.25 C91.12,95.63 92.25,96.59 94.31,96.82 C96.66,97.09 97.31,96.64 98.28,94.07 C99.64,90.46 102.52,89.72 101.46,93.25 C101.09,94.49 100.19,96.13 99.47,96.89 C97.90,98.54 89.34,99.35 86.50,98.11 ZM 105.60 98.16 C105.31,97.69 105.17,92.44 105.29,86.49 C105.45,78.90 105.88,75.54 106.76,75.25 C107.70,74.93 108.00,77.72 108.00,86.92 C108.00,97.71 107.31,100.93 105.60,98.16 ZM 132.04 88.85 C132.12,83.16 131.87,77.71 131.48,76.75 C130.85,75.15 131.25,74.85 133.75,75.07 C134.16,75.10 134.37,75.78 134.21,76.57 C133.83,78.38 134.96,78.35 137.44,76.47 C141.01,73.77 148.00,75.49 148.00,79.07 C148.00,80.65 146.06,80.10 144.27,78.00 C143.33,76.90 142.32,76.00 142.03,76.00 C141.74,76.00 141.65,81.22 141.84,87.61 C142.12,96.99 141.92,99.14 140.84,98.78 C139.84,98.45 139.50,95.86 139.50,88.67 C139.50,82.16 139.13,79.00 138.37,79.00 C136.02,79.00 135.08,81.87 134.79,89.97 C134.59,95.74 134.10,98.47 133.20,98.77 C132.18,99.11 131.93,96.94 132.04,88.85 ZM 154.25 97.50 C152.04,95.92 151.15,93.00 152.88,93.00 C153.36,93.00 154.32,93.68 155.00,94.50 C155.68,95.32 157.20,95.96 158.37,95.92 C159.54,95.88 159.94,95.62 159.25,95.34 C158.56,95.06 158.00,93.52 158.00,91.92 C158.00,88.71 156.91,88.19 155.00,90.50 C153.43,92.39 152.00,92.43 152.00,90.57 C152.00,88.65 156.42,85.29 159.98,84.50 C163.65,83.70 165.34,81.66 164.52,79.05 C163.30,75.21 157.00,77.04 157.00,81.24 C157.00,82.73 156.65,82.88 155.09,82.05 C152.49,80.66 153.51,77.14 156.89,75.84 C160.22,74.55 170.64,75.24 172.26,76.86 C172.99,77.59 173.65,81.69 173.86,86.77 C174.14,93.35 174.62,95.73 175.86,96.65 C177.37,97.76 177.36,97.91 175.75,98.54 C174.78,98.91 172.31,98.93 170.25,98.59 C165.63,97.81 164.42,97.80 160.00,98.53 C157.61,98.93 155.78,98.60 154.25,97.50 ZM 171.17 89.25 C170.92,82.70 170.44,80.19 169.24,79.26 C167.11,77.61 166.65,78.28 166.81,82.75 C166.89,84.81 166.52,87.18 165.99,88.00 C165.21,89.21 165.03,89.08 165.02,87.28 C165.01,85.82 164.53,85.24 163.64,85.59 C161.58,86.37 159.91,90.79 160.61,93.58 C161.15,95.75 161.62,95.97 164.49,95.44 C166.79,95.00 168.16,95.28 169.13,96.37 C169.88,97.23 170.73,97.94 171.00,97.96 C171.27,97.98 171.35,94.06 171.17,89.25 ZM 178.65 98.24 C177.59,96.53 178.64,75.62 179.81,75.23 C180.69,74.94 181.00,78.03 181.00,86.92 C181.00,97.60 180.31,100.93 178.65,98.24 ZM 191.66 97.45 C191.96,96.65 192.62,96.00 193.11,96.00 C194.54,96.00 194.13,97.74 192.55,98.34 C191.58,98.71 191.29,98.42 191.66,97.45 ZM 204.95 98.25 C204.91,97.84 204.88,93.87 204.87,89.44 C204.86,80.26 204.04,77.90 201.58,79.94 C200.71,80.66 200.00,81.86 200.00,82.62 C200.00,85.19 198.13,84.02 197.82,81.25 C197.59,79.31 196.86,78.41 195.33,78.19 C193.57,77.94 193.26,78.27 193.69,79.94 C194.35,82.44 193.18,82.63 191.47,80.29 C190.41,78.84 189.97,78.78 188.61,79.91 C187.72,80.64 187.00,81.86 187.00,82.62 C187.00,83.38 186.60,84.00 186.11,84.00 C184.88,84.00 184.08,75.74 185.18,74.52 C185.73,73.91 186.28,74.37 186.64,75.75 C187.18,77.78 187.39,77.84 189.33,76.48 C192.09,74.55 196.45,74.59 198.42,76.56 C199.84,77.98 200.19,77.98 202.21,76.56 C203.44,75.70 205.66,75.00 207.15,75.00 C210.13,75.00 213.38,77.58 212.40,79.17 C211.99,79.83 211.40,79.80 210.69,79.09 C207.71,76.11 207.00,77.93 207.00,88.50 C207.00,94.83 206.60,99.00 206.00,99.00 C205.45,99.00 204.98,98.66 204.95,98.25 ZM 221.78 97.44 C218.90,95.88 217.00,93.16 217.00,90.60 C217.00,88.38 219.53,89.66 220.84,92.56 C222.57,96.34 224.11,95.50 223.84,90.93 C223.59,86.66 225.08,84.71 227.80,85.75 C229.07,86.24 229.05,86.49 227.64,87.52 C224.36,89.92 226.37,97.00 230.34,97.00 C233.06,97.00 235.00,95.25 235.00,92.80 C235.00,91.81 235.68,91.00 236.50,91.00 C238.93,91.00 238.22,94.68 235.37,96.93 C232.23,99.39 225.82,99.64 221.78,97.44 ZM 263.40 97.16 C261.15,96.10 258.33,93.87 257.15,92.21 C254.91,89.07 254.26,85.00 256.00,85.00 C256.55,85.00 257.00,84.07 257.00,82.94 C257.00,81.81 256.55,81.16 256.00,81.50 C254.16,82.64 254.98,78.33 257.26,74.90 C260.03,70.73 267.11,67.00 272.24,67.00 C285.03,67.00 292.72,79.68 285.11,88.21 C282.38,91.26 281.79,91.46 274.64,91.68 C265.14,91.98 263.54,90.80 264.29,84.10 C264.98,77.96 268.42,74.92 274.14,75.41 C276.39,75.60 278.60,76.35 279.05,77.08 C280.51,79.44 278.09,88.00 275.96,88.00 C275.43,88.00 275.00,88.68 275.00,89.50 C275.00,90.32 275.45,91.00 276.00,91.00 C276.55,91.00 277.00,90.55 277.00,90.00 C277.00,89.45 277.89,89.00 278.98,89.00 C281.66,89.00 284.20,84.83 284.20,80.43 C284.20,70.19 268.17,66.33 261.95,75.07 C253.65,86.72 265.57,101.71 278.46,95.84 C279.86,95.20 281.31,94.98 281.69,95.35 C283.18,96.84 279.86,98.24 273.84,98.65 C268.99,98.98 266.54,98.63 263.40,97.16 ZM 273.27 85.74 C274.21,82.97 274.42,80.66 273.87,79.17 C272.75,76.16 271.39,77.12 270.57,81.49 C269.97,84.66 268.00,86.54 268.00,83.93 C268.00,83.34 267.33,83.53 266.50,84.36 C264.63,86.22 264.63,86.64 266.45,87.34 C267.42,87.72 267.71,87.42 267.34,86.44 C266.94,85.41 267.25,85.16 268.39,85.60 C269.27,85.94 270.00,87.07 270.00,88.11 C270.00,91.43 271.76,90.14 273.27,85.74 ZM 293.24 96.76 C290.49,93.83 289.50,87.56 290.94,82.21 C292.39,76.85 295.67,74.53 300.50,75.43 C303.27,75.95 304.00,75.77 304.00,74.55 C304.00,73.70 304.45,73.00 305.00,73.00 C306.24,73.00 306.34,81.67 305.11,82.43 C304.62,82.74 303.93,81.86 303.59,80.49 C302.89,77.70 300.54,77.16 299.61,79.58 C299.27,80.45 299.00,82.70 299.00,84.58 C299.00,86.46 298.55,88.00 298.00,88.00 C297.45,88.00 297.00,85.97 297.00,83.50 C297.00,81.03 297.45,79.00 298.00,79.00 C298.55,79.00 299.00,78.31 299.00,77.46 C299.00,76.17 298.71,76.20 297.14,77.71 C294.39,80.34 293.00,83.47 293.00,86.98 C293.00,91.11 295.62,96.02 297.78,95.92 C298.82,95.87 299.01,95.64 298.25,95.34 C296.83,94.77 296.52,91.00 297.89,91.00 C298.38,91.00 299.07,92.12 299.41,93.50 C300.14,96.39 302.46,96.79 303.88,94.26 C305.17,91.95 306.40,93.29 305.66,96.20 C305.17,98.15 304.34,98.54 300.23,98.77 C296.27,98.99 294.99,98.62 293.24,96.76 ZM 310.00 83.08 C310.00,69.33 310.22,67.00 311.53,67.00 C312.84,67.00 313.01,69.17 312.78,82.67 C312.57,94.11 312.16,98.45 311.25,98.75 C310.28,99.07 310.00,95.50 310.00,83.08 ZM 322.39 98.02 C316.58,95.67 314.29,87.41 317.55,80.54 C321.66,71.87 336.45,73.53 338.99,82.95 C340.57,88.82 338.83,94.52 334.70,97.04 C331.38,99.07 326.03,99.49 322.39,98.02 ZM 330.00 89.81 C330.59,82.07 329.99,77.83 328.20,77.23 C327.45,76.98 326.41,78.11 325.73,79.90 C324.39,83.46 323.00,83.97 323.00,80.92 C323.00,77.82 320.68,79.14 319.62,82.83 C319.12,84.57 318.33,86.00 317.86,86.00 C317.38,86.00 317.00,86.68 317.00,87.50 C317.00,88.32 317.41,89.00 317.90,89.00 C318.40,89.00 319.27,90.35 319.85,92.00 C320.94,95.12 323.00,96.11 323.00,93.50 C323.00,91.15 324.56,91.74 325.85,94.58 C327.79,98.82 329.46,96.91 330.00,89.81 ZM 335.61 92.25 C337.21,90.15 337.40,84.61 335.96,81.93 C334.06,78.38 333.23,79.94 333.26,87.00 C333.28,90.85 333.51,94.00 333.79,94.00 C334.06,94.00 334.88,93.21 335.61,92.25 ZM 343.66 97.45 C344.26,95.87 346.00,95.46 346.00,96.89 C346.00,97.38 345.35,98.04 344.55,98.34 C343.58,98.71 343.29,98.42 343.66,97.45 ZM 349.00 92.00 C349.00,86.44 349.31,85.00 350.50,85.00 C351.69,85.00 352.00,86.44 352.00,92.00 C352.00,97.56 351.69,99.00 350.50,99.00 C349.31,99.00 349.00,97.56 349.00,92.00 ZM 362.00 92.50 C362.00,87.39 362.32,86.00 363.50,86.00 C364.68,86.00 365.00,87.39 365.00,92.50 C365.00,97.61 364.68,99.00 363.50,99.00 C362.32,99.00 362.00,97.61 362.00,92.50 ZM 369.41 90.32 C369.62,85.54 369.57,81.04 369.29,80.32 C368.37,77.92 365.96,78.95 365.35,82.00 C364.64,85.53 362.03,86.12 362.31,82.68 C362.80,76.73 372.57,72.66 376.35,76.83 C378.67,79.40 378.81,99.00 376.50,99.00 C375.27,99.00 375.00,97.22 375.00,88.97 C375.00,80.78 374.71,78.83 373.43,78.34 C372.57,78.01 371.36,78.24 370.73,78.87 C369.89,79.71 369.91,80.00 370.80,80.00 C371.65,80.00 372.00,82.78 372.00,89.50 C372.00,97.24 371.72,99.00 370.51,99.00 C369.28,99.00 369.09,97.51 369.41,90.32 ZM 383.83 98.01 C381.67,96.69 380.57,91.67 381.90,89.19 C382.47,88.13 385.38,86.27 388.37,85.05 C393.98,82.78 395.95,80.03 393.45,77.96 C391.26,76.14 387.54,77.21 387.18,79.75 C386.97,81.23 386.17,82.00 384.86,82.00 C381.99,82.00 382.80,77.90 386.00,76.29 C391.75,73.39 403.00,75.56 403.00,79.56 C403.00,81.43 401.58,81.40 400.00,79.50 C397.54,76.53 396.93,78.13 397.21,86.75 L 397.50 95.50 L 401.81 95.81 C404.60,96.01 405.98,96.54 405.72,97.31 C405.37,98.36 403.43,98.49 394.50,98.08 C393.95,98.05 391.70,98.26 389.50,98.53 C387.30,98.81 384.75,98.57 383.83,98.01 ZM 394.06 93.89 C394.96,92.21 394.98,85.01 394.08,85.00 C392.83,85.00 390.00,88.57 390.00,90.15 C390.00,91.17 389.55,92.00 389.00,92.00 C388.45,92.00 388.00,91.32 388.00,90.50 C388.00,89.68 387.61,89.00 387.12,89.00 C385.41,89.00 383.84,91.93 384.48,93.94 C385.00,95.58 385.90,95.95 389.12,95.82 C391.80,95.72 393.42,95.09 394.06,93.89 ZM 413.81 87.06 C413.53,76.04 413.65,75.00 415.28,75.00 C416.90,75.00 417.04,76.04 416.78,86.67 C416.59,94.58 416.12,98.46 415.31,98.73 C414.44,99.02 414.04,95.83 413.81,87.06 ZM 421.96 98.50 C421.44,91.44 422.10,75.47 422.93,75.19 C423.65,74.95 424.00,78.75 424.00,86.92 C424.00,94.31 423.61,99.00 423.00,99.00 C422.45,99.00 421.98,98.78 421.96,98.50 ZM 440.98 89.75 C440.98,84.66 440.59,79.90 440.13,79.18 C439.54,78.24 438.20,78.06 435.55,78.56 C432.62,79.11 431.59,79.89 430.80,82.13 C429.27,86.54 428.02,85.54 428.15,80.00 C428.21,77.25 428.65,75.00 429.13,75.00 C429.61,75.00 430.00,75.68 430.00,76.50 C430.00,78.37 430.94,78.36 433.44,76.47 C436.35,74.27 440.63,74.63 442.44,77.22 C444.66,80.39 444.71,99.00 442.50,99.00 C441.28,99.00 441.00,97.30 440.98,89.75 ZM 449.00 88.06 C449.00,81.35 449.39,77.00 450.00,77.00 C450.60,77.00 451.00,81.15 451.00,87.44 C451.00,93.32 450.56,98.15 450.00,98.50 C449.36,98.90 449.00,95.18 449.00,88.06 ZM 462.50 89.25 C462.50,81.25 462.23,79.50 461.00,79.50 C460.17,79.50 458.86,80.96 458.07,82.75 C456.11,87.20 454.62,86.85 455.26,82.09 C455.55,79.94 455.36,77.76 454.85,77.25 C454.27,76.67 454.50,75.83 455.46,75.04 C456.77,73.95 457.00,74.08 457.00,75.88 C457.00,78.36 457.77,78.49 460.44,76.47 C464.34,73.52 471.00,75.54 471.00,79.69 C471.00,81.06 470.73,81.05 468.54,79.62 C467.18,78.73 465.72,78.00 465.29,78.00 C464.85,78.00 464.64,82.72 464.81,88.50 C465.06,96.67 464.84,99.00 463.81,99.00 C462.82,99.00 462.50,96.64 462.50,89.25 ZM 476.86 98.03 C474.70,96.70 473.77,92.73 474.92,89.72 C475.54,88.08 477.61,86.58 481.32,85.07 C486.98,82.78 488.95,80.04 486.45,77.96 C484.07,75.98 480.53,77.21 480.19,80.14 C479.95,82.23 479.47,82.67 477.89,82.26 C475.14,81.54 475.81,77.90 479.00,76.29 C484.75,73.39 496.00,75.56 496.00,79.56 C496.00,81.46 494.53,81.39 492.52,79.38 C491.63,78.49 490.71,77.95 490.48,78.19 C489.75,78.92 489.72,93.73 490.44,94.90 C490.81,95.50 492.93,96.00 495.14,96.00 C497.92,96.00 499.04,96.39 498.74,97.25 C498.36,98.37 496.60,98.50 487.50,98.08 C486.95,98.05 484.70,98.26 482.50,98.53 C480.30,98.81 477.76,98.58 476.86,98.03 ZM 487.05 93.90 C488.23,91.71 488.30,85.00 487.15,85.00 C485.71,85.00 483.20,88.38 482.72,91.00 C482.25,93.50 482.25,93.50 481.51,91.25 C481.10,90.01 480.42,89.00 480.01,89.00 C478.42,89.00 477.11,91.69 477.66,93.79 C478.13,95.61 478.89,95.95 482.17,95.82 C484.80,95.72 486.42,95.08 487.05,93.90 ZM 501.28 87.00 C501.07,76.22 501.23,75.00 502.78,75.00 C504.33,75.00 504.47,76.18 504.19,87.00 C503.97,95.45 503.53,99.00 502.69,99.00 C501.85,99.00 501.43,95.49 501.28,87.00 ZM 507.24 88.48 C507.51,82.69 507.34,77.71 506.86,77.42 C505.29,76.44 505.97,75.00 508.00,75.00 C509.14,75.00 510.00,75.67 510.00,76.56 C510.00,77.97 510.21,77.97 512.22,76.56 C515.03,74.59 519.38,74.55 520.98,76.47 C522.06,77.77 522.54,77.77 525.05,76.47 C528.89,74.49 532.34,74.62 534.35,76.83 C536.64,79.37 536.81,99.00 534.53,99.00 C533.36,99.00 533.01,96.96 532.78,88.76 C532.56,80.53 532.20,78.47 530.97,78.23 C529.66,77.98 529.50,79.43 529.84,88.47 C530.15,96.88 529.95,99.00 528.86,99.00 C527.79,99.00 527.57,97.01 527.82,89.50 C528.09,81.35 527.90,79.90 526.47,79.35 C523.82,78.33 523.03,80.83 523.02,90.25 C523.00,97.61 522.74,99.00 521.40,99.00 C520.00,99.00 519.84,97.63 520.17,88.50 C520.54,78.21 520.50,78.00 518.33,78.00 C515.66,78.00 514.35,79.75 515.89,81.29 C517.65,83.05 517.33,95.66 515.50,96.36 C514.24,96.85 514.00,95.53 514.00,87.97 C514.00,80.97 513.69,79.00 512.61,79.00 C510.52,79.00 510.00,81.31 510.00,90.58 C510.00,97.68 509.75,99.00 508.38,99.00 C506.96,99.00 506.82,97.71 507.24,88.48 ZM 546.00 98.35 C540.13,95.99 537.80,89.03 540.56,82.13 C544.28,72.83 555.81,72.51 559.61,81.60 C561.37,85.83 561.38,88.00 559.62,88.00 C558.87,88.00 557.95,86.54 557.58,84.75 C557.01,81.97 556.77,81.75 555.91,83.25 C554.39,85.89 553.33,85.36 553.33,81.97 C553.33,76.17 549.72,75.46 548.50,81.01 C547.72,84.54 546.28,84.93 545.80,81.75 L 545.46 79.50 L 544.09 81.94 C542.21,85.30 542.36,91.79 544.36,93.79 C545.88,95.31 546.00,95.19 546.00,92.21 C546.00,88.19 547.62,88.01 548.48,91.93 C548.84,93.54 549.77,95.39 550.55,96.04 C552.74,97.86 556.87,96.36 557.59,93.48 C558.25,90.88 561.00,89.99 561.00,92.39 C561.00,95.67 557.43,98.25 552.44,98.60 C549.72,98.79 546.83,98.68 546.00,98.35 ZM 566.17 98.15 C565.42,97.66 564.98,96.03 565.17,94.39 C565.45,91.95 565.95,91.50 568.39,91.50 C571.96,91.50 574.00,94.18 572.39,96.75 C571.14,98.75 568.13,99.42 566.17,98.15 ZM 570.00 95.00 C570.00,94.45 569.55,94.00 569.00,94.00 C568.45,94.00 568.00,94.45 568.00,95.00 C568.00,95.55 568.45,96.00 569.00,96.00 C569.55,96.00 570.00,95.55 570.00,95.00 ZM 582.11 97.60 C574.74,93.52 575.60,79.74 583.43,76.46 C589.46,73.94 596.31,75.24 597.55,79.14 C598.96,83.59 594.97,84.40 593.31,80.00 C592.58,78.07 591.47,77.00 590.21,77.00 C588.97,77.00 587.78,78.11 587.00,80.00 C585.63,83.31 584.02,83.98 583.97,81.25 C583.90,77.86 580.00,84.01 580.00,87.50 C580.00,90.99 583.90,97.14 583.97,93.75 C584.01,91.21 585.50,91.60 586.82,94.50 C587.56,96.12 588.77,97.00 590.28,97.00 C593.39,97.00 595.00,95.20 595.00,91.73 C595.00,89.54 595.41,88.93 596.74,89.19 C599.60,89.74 599.34,92.81 596.15,96.00 C593.73,98.43 592.33,98.99 588.83,98.96 C586.45,98.95 583.42,98.33 582.11,97.60 ZM 605.78 97.44 C602.04,95.41 601.00,93.06 601.00,86.62 C601.00,79.25 603.64,76.02 610.27,75.27 C616.55,74.57 620.87,76.44 622.62,80.64 C624.41,84.92 624.37,90.37 622.53,93.94 C620.09,98.66 611.38,100.48 605.78,97.44 ZM 613.96 95.07 C615.56,92.09 615.25,80.72 613.52,78.44 C611.23,75.43 610.03,78.23 610.02,86.67 C609.99,96.52 611.49,99.70 613.96,95.07 ZM 620.15 92.00 C620.73,90.35 621.60,89.00 622.10,89.00 C622.59,89.00 623.00,88.32 623.00,87.50 C623.00,86.68 622.59,86.00 622.08,86.00 C621.57,86.00 620.87,84.69 620.52,83.08 C620.17,81.48 619.34,79.96 618.69,79.71 C617.83,79.38 617.50,81.46 617.50,87.13 C617.50,95.39 618.40,97.03 620.15,92.00 ZM 607.00 87.00 C607.00,83.15 606.59,80.00 606.10,80.00 C604.98,80.00 602.95,85.61 603.46,87.28 C603.66,87.95 604.10,89.74 604.44,91.25 C605.57,96.42 607.00,94.04 607.00,87.00 ZM 628.00 86.96 C628.00,76.11 628.17,74.90 629.53,76.03 C630.77,77.05 631.01,79.34 630.78,87.82 C630.59,95.14 630.12,98.46 629.25,98.75 C628.30,99.07 628.00,96.28 628.00,86.96 ZM 640.94 98.33 C640.90,97.88 640.93,93.34 640.99,88.25 C641.10,80.36 640.88,79.00 639.51,79.00 C638.62,79.00 637.43,80.34 636.85,82.00 C635.34,86.32 634.26,85.70 633.80,80.25 C633.40,75.64 635.16,71.95 635.82,76.02 C636.12,77.85 636.33,77.88 639.02,76.49 C642.62,74.63 644.99,74.60 647.55,76.40 C649.27,77.60 649.83,77.60 651.47,76.40 C655.32,73.58 662.00,75.37 662.00,79.22 C662.00,81.30 661.91,81.28 659.21,78.71 L 656.43 76.04 L 656.46 87.18 C656.49,95.22 656.15,98.43 655.25,98.74 C654.30,99.06 654.00,96.71 654.00,89.08 C654.00,80.54 653.76,79.00 652.41,79.00 C651.54,79.00 650.32,80.35 649.69,82.00 C648.27,85.76 647.00,85.86 647.00,82.22 C647.00,80.69 646.20,78.76 645.22,77.92 C643.53,76.47 643.44,76.94 643.47,87.36 C643.49,95.25 643.15,98.43 642.25,98.74 C641.56,98.97 640.97,98.79 640.94,98.33 ZM 660.00 97.00 C660.00,96.45 660.45,96.00 661.00,96.00 C661.55,96.00 662.00,96.45 662.00,97.00 C662.00,97.55 661.55,98.00 661.00,98.00 C660.45,98.00 660.00,97.55 660.00,97.00 ZM 37.25 92.50 C35.30,90.28 35.52,68.40 37.50,67.64 C38.79,67.14 39.00,68.97 39.00,80.53 C39.00,87.94 38.89,93.98 38.75,93.96 C38.61,93.94 37.94,93.29 37.25,92.50 ZM 217.45 83.26 C218.46,79.10 222.16,75.91 226.60,75.39 C231.35,74.82 235.04,76.60 236.82,80.31 C238.72,84.27 237.83,85.83 235.19,83.19 C233.98,81.98 233.00,81.45 233.00,82.00 C233.00,82.55 232.55,83.00 232.00,83.00 C231.45,83.00 231.00,82.16 231.00,81.12 C231.00,80.09 230.29,78.66 229.42,77.94 C228.12,76.85 227.69,76.87 226.94,78.06 C226.44,78.85 226.02,80.51 226.02,81.75 C226.01,82.99 225.55,84.00 225.00,84.00 C224.45,84.00 224.00,83.10 224.00,82.00 C224.00,79.25 222.15,79.48 221.05,82.36 C220.56,83.66 219.39,85.02 218.47,85.37 C217.05,85.92 216.89,85.58 217.45,83.26 ZM 94.23 83.81 C94.73,82.32 97.00,81.50 97.00,82.81 C97.00,83.35 96.29,84.06 95.42,84.39 C94.44,84.77 93.99,84.54 94.23,83.81 ZM 349.88 82.25 C349.82,81.29 349.83,79.97 349.91,79.33 C349.99,78.68 349.59,77.87 349.03,77.52 C347.31,76.46 347.88,75.00 350.00,75.00 C351.14,75.00 352.00,75.67 352.00,76.56 C352.00,77.97 352.21,77.97 354.22,76.56 C357.04,74.58 361.38,74.55 363.00,76.50 C364.05,77.77 363.85,78.00 361.75,78.00 C356.15,78.00 352.98,79.23 352.38,81.63 C351.68,84.39 350.05,84.80 349.88,82.25 ZM 112.00 79.56 C112.00,76.17 113.47,73.90 114.21,76.13 C114.48,76.95 115.22,76.88 116.80,75.89 C119.57,74.16 122.34,75.63 122.85,79.10 C123.20,81.44 123.16,81.45 121.19,79.67 C119.61,78.25 118.73,78.07 117.20,78.89 C116.12,79.47 114.97,80.63 114.65,81.47 C113.59,84.22 112.00,83.07 112.00,79.56 ZM 117.73 80.92 C118.08,79.57 118.54,79.11 118.79,79.86 C119.03,80.58 118.75,81.65 118.17,82.23 C117.43,82.97 117.30,82.58 117.73,80.92 ZM 343.64 76.50 C343.25,75.48 343.69,75.00 345.00,75.00 C346.31,75.00 346.75,75.48 346.36,76.50 C346.05,77.32 345.43,78.00 345.00,78.00 C344.57,78.00 343.95,77.32 343.64,76.50 ZM 409.39 70.57 C408.31,67.77 409.79,65.84 412.74,66.18 C414.93,66.43 415.50,67.01 415.50,69.00 C415.50,70.99 414.93,71.57 412.74,71.82 C410.95,72.02 409.78,71.59 409.39,70.57 Z" fill="rgba(1,1,1,1)"/>
</g>
</svg>